<svg xmlns="http://www.w3.org/2000/svg" width="27.504" height="23.068" viewBox="0 0 27.504 23.068">
  <g id="bath" transform="translate(-8 -48)">
    <path id="Path_388" data-name="Path 388" d="M35.06,59.534H12.88v-.887a.444.444,0,0,0-.444-.444h-.444V56.872h.887v.444a.444.444,0,1,0,.887,0V55.541a.444.444,0,0,0-.887,0v.444h-.887V50.662a1.776,1.776,0,0,1,1.774-1.774h1.774a1.776,1.776,0,0,1,1.774,1.774V50.7A2.666,2.666,0,0,0,15.1,53.323a.444.444,0,0,0,.444.444h4.436a.444.444,0,0,0,.444-.444A2.666,2.666,0,0,0,18.2,50.7v-.038A2.665,2.665,0,0,0,15.541,48H13.767a2.665,2.665,0,0,0-2.662,2.662V58.2h-.444a.444.444,0,0,0-.444.444v.887H8.444A.444.444,0,0,0,8,59.978v1.331a.444.444,0,0,0,.444.444H9.774v5.323A2.665,2.665,0,0,0,11.993,69.7v.925a.444.444,0,0,0,.887,0v-.887H30.624v.887a.444.444,0,0,0,.887,0V69.7a2.665,2.665,0,0,0,2.218-2.624V61.752H35.06a.444.444,0,0,0,.444-.444V59.978A.444.444,0,0,0,35.06,59.534Zm-17.3-7.985a1.778,1.778,0,0,1,1.718,1.331H16.041a1.778,1.778,0,0,1,1.718-1.331ZM11.105,59.09h.887v.444h-.887Zm21.737,7.985a1.776,1.776,0,0,1-1.774,1.774H12.436a1.776,1.776,0,0,1-1.774-1.774V61.752H32.842Zm1.774-6.211H8.887v-.444h25.73Z" fill="#b28451"/>
    <path id="Path_389" data-name="Path 389" d="M72.444,312.887h3.549a.444.444,0,0,0,0-.887H72.444a.444.444,0,1,0,0,.887Z" transform="translate(-60.451 -249.361)" fill="#b28451"/>
    <path id="Path_390" data-name="Path 390" d="M160.444,312.887h.444a.444.444,0,0,0,0-.887h-.444a.444.444,0,0,0,0,.887Z" transform="translate(-143.571 -249.361)" fill="#b28451"/>
  </g>
</svg>
