<svg xmlns="http://www.w3.org/2000/svg" width="28.677" height="23.428" viewBox="0 0 28.677 23.428">
  <path id="XMLID_874_" d="M27.277,58.611v-.546a2.869,2.869,0,0,0-1.307-2.4V49.7a2.846,2.846,0,0,0-2.843-2.843H5.549A2.846,2.846,0,0,0,2.707,49.7V55.66a2.869,2.869,0,0,0-1.307,2.4v.546A1.881,1.881,0,0,0,0,60.427v6.39a1.88,1.88,0,0,0,1.788,1.875v.756a.839.839,0,1,0,1.677,0V68.7H25.211v.754a.839.839,0,1,0,1.677,0v-.756a1.88,1.88,0,0,0,1.788-1.875v-6.39A1.881,1.881,0,0,0,27.277,58.611ZM4.384,49.7a1.167,1.167,0,0,1,1.166-1.166H23.127A1.167,1.167,0,0,1,24.293,49.7V55.2H23.175V53.717A1.878,1.878,0,0,0,21.3,51.841H16.787a1.878,1.878,0,0,0-1.876,1.876V55.2H13.766V53.717a1.878,1.878,0,0,0-1.876-1.876H7.378A1.878,1.878,0,0,0,5.5,53.717V55.2H4.384ZM21.5,53.717V55a.2.2,0,0,1-.2.2H16.787a.2.2,0,0,1-.2-.2V53.717a.2.2,0,0,1,.2-.2H21.3a.2.2,0,0,1,.2.2Zm-9.409,0V55a.2.2,0,0,1-.2.2H7.378a.2.2,0,0,1-.2-.2V53.717a.2.2,0,0,1,.2-.2H11.89A.2.2,0,0,1,12.089,53.717ZM3.077,58.065A1.194,1.194,0,0,1,4.27,56.872H24.407A1.194,1.194,0,0,1,25.6,58.065v.484H3.077ZM27,66.817a.2.2,0,0,1-.2.2H1.878a.2.2,0,0,1-.2-.2v-6.39a.2.2,0,0,1,.2-.2H26.8a.2.2,0,0,1,.2.2v6.39Z" transform="translate(0 -46.86)" fill="#b28451"/>
</svg>
