<svg xmlns="http://www.w3.org/2000/svg" xmlns:xlink="http://www.w3.org/1999/xlink" width="447.891" height="356.728" viewBox="0 0 447.891 356.728">
  <defs>
    <linearGradient id="linear-gradient" x1="0.502" y1="1" x2="0.502" gradientUnits="objectBoundingBox">
      <stop offset="0" stop-color="gray" stop-opacity="0.251"/>
      <stop offset="0.535" stop-color="gray" stop-opacity="0.122"/>
      <stop offset="1" stop-color="gray" stop-opacity="0.102"/>
    </linearGradient>
    <linearGradient id="linear-gradient-3" x1="0.5" y1="1" x2="0.5" y2="0" xlink:href="#linear-gradient"/>
  </defs>
  <g id="undraw_Beach_rvmg" transform="translate(0.001 0)">
    <path id="Path_301" data-name="Path 301" d="M478.593,215.815c-16.288,27.147-13.7,63.861-7.008,92.748,2.242,9.672,4.835,19.88,2.7,30.758-2.605,13.3-11.68,23.829-20.812,29.891-16.647,11.05-35.515,10.965-49.121-.221-11.758-9.667-19.381-26.671-31.395-35.809-20.106-15.293-48.01-5.556-72.329,9.239-17.205,10.467-36.157,23.7-51.861,16.518-11.05-5.051-17.813-19.594-20.868-35.467-1.475-7.664-2.323-16.043-5.838-21.856a23.159,23.159,0,0,0-8-7.622c-27.5-17.092-65.134-2.095-91.624-21.5-17.891-13.105-27.84-40.483-30.88-69.849s.08-60.862,3.9-91.88c2.714-22.043,6.321-45.656,17.608-63.7C125,27.987,143.587,19.313,159.638,20.895s29.883,12.063,41.766,24.9c14.851,16.043,28.174,36.6,47.571,41.6,13.21,3.409,27.729-.883,41.83-3.382,23.573-4.177,46.757-3.326,69.775-2.13,22.037,1.145,44.205,2.638,64.662,10.5,14.477,5.562,25.5,17.362,38.986,24.96,8.789,4.953,18.76,5.478,26.927,12.124,10.06,8.187,18.672,23.419,14.389,42.846C501.474,190.782,487.239,201.407,478.593,215.815Z" transform="translate(-78.148 -20.712)" fill="#6c63ff" opacity="0.1"/>
    <path id="Path_302" data-name="Path 302" d="M233.661,399.637s35.732,6.648,61.492-28.253c0,0-21.605-21.19-36.563-16.62s-24.929,31.577-24.929,31.577Z" transform="translate(-161.926 -215.592)" fill="#c69963"/>
    <path id="Path_303" data-name="Path 303" d="M233.661,399.637s35.732,6.648,61.492-28.253c0,0-21.605-21.19-36.563-16.62s-24.929,31.577-24.929,31.577Z" transform="translate(-161.926 -215.592)" opacity="0.1"/>
    <path id="Path_304" data-name="Path 304" d="M211.655,374.961l36.563,75.2,8.725-4.57-37.809-70.633Z" transform="translate(-123.715 -219.169)" fill="#504f60"/>
    <path id="Path_305" data-name="Path 305" d="M265.788,243.115a81.013,81.013,0,0,0-19.619,2.613,84.907,84.907,0,0,0-24.9,11.094A78.418,78.418,0,0,0,204.3,271.369c-26.363-46.335-20.467-129.923-19.973-136.309v0c.008-.1.012-.183.017-.241.008-.1.012-.141.012-.141C201.8,134.673,265.788,243.115,265.788,243.115Z" transform="translate(-132.561 -87.324)" fill="#c69963"/>
    <path id="Path_306" data-name="Path 306" d="M508.122,559.782l-40.5,10.89S405.3,571.919,383.7,590.616s-84.344,16.62-86.006,16.62-24.929-20.359-67.309.831-93.069,7.894-93.069,7.894S84.545,637.981,69.587,630.5s-5.817-17.45-5.817-17.45,30.746-23.683,7.063-49.859,4.155-26.176,4.155-26.176h80.1a39.792,39.792,0,0,0,18.784-4.516c6.257-3.345,13.62-2.277,18.547-.868a29.659,29.659,0,0,0,13.1.706c40.207-6.818,65.863-4.865,76.525-3.378a59.411,59.411,0,0,0,13.391.328c13.586-1.184,41.782-3.7,57.092-5.518,4.213-.5,7.45-.943,9.141-1.3,4.737-.989,27.1,3.37,49.717,9.2,25,6.436,50.311,14.671,52.493,19.47,3.008,6.615,29.52,6.918,43.942,6.581a1.047,1.047,0,0,1,.295,2.057Z" transform="translate(-61.006 -313.917)" fill="#eed1d7"/>
    <path id="Path_307" data-name="Path 307" d="M680.505,666.694l-9.972,2.077s-39.471-21.19-44.873-14.127" transform="translate(-391.054 -390.411)" fill="#ccb2bb"/>
    <path id="Path_308" data-name="Path 308" d="M606.237,532.566s-63.985-12.88-90.577,2.493" transform="translate(-326.758 -316.944)" fill="#ccb2bb"/>
    <path id="Path_309" data-name="Path 309" d="M587.041,589.815s-16-6.539-15.3-2.8,8.874,7.473,8.874,7.473-16.114-1.4-15.413,4.2c0,0,18.449-.467,17.749,3.737s0,9.808,3.036,8.641,4.9-14.713,13.078-8.174,7.006-6.772-3.036-7.94c0,0,5.371-3.97,4.9-5.838S587.041,589.815,587.041,589.815Z" transform="translate(-355.704 -351.047)" opacity="0.1"/>
    <path id="Path_310" data-name="Path 310" d="M586.479,588.129s-16-6.539-15.3-2.8,8.874,7.473,8.874,7.473-16.114-1.4-15.413,4.2c0,0,18.449-.467,17.749,3.737s0,9.808,3.036,8.641,4.9-14.713,13.078-8.174,7.006-6.772-3.036-7.94c0,0,5.371-3.97,4.9-5.838S586.479,588.129,586.479,588.129Z" transform="translate(-355.376 -350.062)" fill="#f89898"/>
    <path id="Path_311" data-name="Path 311" d="M881.59,616.282s-22.852-7.063-24.929-5.817" transform="translate(-526.076 -365.344)" fill="#ccb2bb"/>
    <path id="Path_312" data-name="Path 312" d="M489.661,633.236s30.746-8.725,42.38-2.078" transform="translate(-311.561 -376.066)" fill="#ccb2bb"/>
    <path id="Path_313" data-name="Path 313" d="M612.161,525.76s8.31-24.514,24.929-19.528S666.174,524.1,666.174,524.1l-54.013,4.155Z" transform="translate(-383.163 -304.113)" fill="#eed1d7"/>
    <path id="Path_314" data-name="Path 314" d="M177.161,620.173s12.88,5.4,34.486,3.324,38.64,10.8,38.64,10.8" transform="translate(-128.901 -371.104)" fill="#ccb2bb"/>
    <g id="Group_204" data-name="Group 204" transform="translate(100.572 148.892)" opacity="0.05">
      <path id="Path_315" data-name="Path 315" d="M303.066,379.636a.978.978,0,0,0,.136-.57A3.558,3.558,0,0,0,303.066,379.636Z" transform="translate(-303.066 -379.066)" fill="url(#linear-gradient)"/>
    </g>
    <g id="Group_205" data-name="Group 205" transform="translate(100.572 148.605)" opacity="0.05">
      <path id="Path_316" data-name="Path 316" d="M303.066,378.947a.978.978,0,0,0,.136-.57,3.555,3.555,0,0,0-.136.57Z" transform="translate(-303.066 -378.377)" fill="url(#linear-gradient)"/>
    </g>
    <g id="Group_206" data-name="Group 206" transform="translate(118.101 212.1)" opacity="0.05">
      <path id="Path_317" data-name="Path 317" d="M352.284,540.054c-.9.386-3.046,2.406-5.829,5.306-.884-5.819-1.456-11.068-1.086-13.25a1.965,1.965,0,0,1,.328-.911c1.67-.114,5.062,4.061,7.772,7.836C352.719,539.635,352.284,540.054,352.284,540.054Z" transform="translate(-345.255 -531.196)" fill="url(#linear-gradient-3)"/>
    </g>
    <g id="Group_207" data-name="Group 207" transform="translate(110.562 184.511)" opacity="0.05">
      <path id="Path_318" data-name="Path 318" d="M266.1,444.083Z" transform="translate(-266.102 -444.083)" fill="#fff"/>
    </g>
    <path id="Path_319" data-name="Path 319" d="M443.819,613.82s14.562,28.844,18.2,29.964a7.6,7.6,0,0,0,6.161-.56s30.245-5.6,24.644.84-54.608,2.52-54.608,2.52L425.9,618.861Z" transform="translate(-274.29 -367.391)" fill="#ef91a3"/>
    <path id="Path_320" data-name="Path 320" d="M351.272,592.888s23.523-15.682,29.964-15.682c0,0,9.521-3.08,15.122,18.2,0,0-19.323,3.361-19.043,12.6l-3.641-7.841-15.682,17.363L338.95,604.649Z" transform="translate(-223.468 -345.898)" opacity="0.1"/>
    <path id="Path_321" data-name="Path 321" d="M351.272,591.54s23.523-15.682,29.964-15.682c0,0,9.521-3.08,15.122,18.2,0,0-19.323,3.361-19.043,12.6l-3.641-7.841-15.682,17.363L338.95,603.3Z" transform="translate(-223.468 -345.11)" fill="#5d526e"/>
    <path id="Path_322" data-name="Path 322" d="M398.237,567.338c-1.4,6.721-8.681,7.841-8.681,7.841l-10.361-6.441s-1.462-9.647-2.7-15.528a17.756,17.756,0,0,0-1.224-4.355c-1.12-1.4,16.522-1.12,16.522-1.12a69.425,69.425,0,0,1,3.377,6.46C397.095,558.4,398.985,563.748,398.237,567.338Z" transform="translate(-244.67 -328.75)" fill="#ef91a3"/>
    <path id="Path_323" data-name="Path 323" d="M280.381,451.806l-5.881,28-14.282-3.641s-13.162-10.362-9.241-16.8a20.424,20.424,0,0,0,2.235-8.337,71.084,71.084,0,0,0-.274-13.506s15.682-4.2,12.6,7.281c-1.266,4.716,1.011,6.738,4.133,7.486C274.155,453.363,280.381,451.806,280.381,451.806Z" transform="translate(-171.62 -263.905)" fill="#ef91a3"/>
    <path id="Path_324" data-name="Path 324" d="M273.456,452.29a15.587,15.587,0,0,1-7.214,1.756c-3.459,0-6.788-2.165-9.381-4.061a63.973,63.973,0,0,0-.14-12.462s15.682-4.2,12.6,7.281C268.056,449.521,270.333,451.542,273.456,452.29Z" transform="translate(-175.404 -263.905)" opacity="0.1"/>
    <circle id="Ellipse_67" data-name="Ellipse 67" cx="15.682" cy="15.682" r="15.682" transform="translate(75.156 158.216)" fill="#ef91a3"/>
    <path id="Path_325" data-name="Path 325" d="M241.826,488.336l4.253,5.932,2.42-8.772a43.654,43.654,0,0,0,1.467-10.754,7.386,7.386,0,0,1,1.434-4.277c4.364-2.38,7.6-3.637,13.1-3.072a29.573,29.573,0,0,1,14.951,6.059c16.347,12.554,24.033,33.419,24.033,33.419s-22.4-4.481-21.283.56c0,0-9.8-15.682-12.042-13.162s4.761,35.845,4.761,35.845L229,533.474l-12.042-31.925.56-23.8s11.9-5.461,14.422-5.461c.882,0,.747-.307,1.12,1.12C234.493,478.905,238.513,483.716,241.826,488.336Z" transform="translate(-152.16 -281.724)" opacity="0.1"/>
    <path id="Path_326" data-name="Path 326" d="M395.174,554.2c-3.9-.7-14.929-2.5-18.676-.986a17.756,17.756,0,0,0-1.224-4.355c-1.12-1.4,16.522-1.12,16.522-1.12A69.411,69.411,0,0,1,395.174,554.2Z" transform="translate(-244.67 -328.75)" opacity="0.1"/>
    <path id="Path_327" data-name="Path 327" d="M243.174,487.662l4.253,5.932,2.42-8.772a43.652,43.652,0,0,0,1.467-10.754,7.386,7.386,0,0,1,1.434-4.277c4.364-2.38,7.6-3.637,13.1-3.072a29.574,29.574,0,0,1,14.951,6.059c16.346,12.554,24.033,33.419,24.033,33.419s-22.4-4.481-21.283.56c0,0-9.8-15.682-12.042-13.162s4.761,35.845,4.761,35.845L230.344,532.8,218.3,500.875l.56-23.8s11.9-5.461,14.422-5.461c.882,0,.747-.307,1.12,1.12C235.841,478.231,239.861,483.042,243.174,487.662Z" transform="translate(-152.948 -281.33)" fill="#dfecfb"/>
    <path id="Path_328" data-name="Path 328" d="M238.551,410.267a3.956,3.956,0,0,1-4.174-1.653,9.106,9.106,0,0,1-.64-2.177c-.813-3.19-3.473-5.573-4.783-8.593-2.207-5.088-.269-10.925,1.673-16.12.954-2.553,1.98-5.212,4.017-7.022,3.13-2.782,7.8-2.849,11.949-2.3a24.267,24.267,0,0,0,5.065.386,6.375,6.375,0,0,0,4.494-2.078c.9.585.568,1.938.384,3a2.987,2.987,0,0,0,.811,2.912c.843.643,2.416.113,2.346-.945-.758,2.243.916,4.722,3.071,5.7a8.57,8.57,0,0,0,2.246.649,5.4,5.4,0,0,1,4.633,5.425v.024a1.461,1.461,0,0,1-.188.837,1.566,1.566,0,0,1-.665.442,10.681,10.681,0,0,0-5.049,4.819c-.58,1.134-1.017,2.448-2.087,3.14-1.315.85-3.037.427-4.6.547a6.525,6.525,0,0,0-5.633,4.626c-.363,1.3-.314,2.71-1.126,3.863a2.2,2.2,0,0,1-1.532.966c-1.214.132-1.773-.958-2.644-1.52-2.048-1.321-3.355.423-4,2.069C241.405,409.07,240.909,409.847,238.551,410.267Z" transform="translate(-158.601 -225.29)" opacity="0.1"/>
    <path id="Path_329" data-name="Path 329" d="M238.551,409.593a3.956,3.956,0,0,1-4.174-1.653,9.105,9.105,0,0,1-.64-2.177c-.813-3.19-3.473-5.573-4.783-8.593-2.207-5.088-.269-10.925,1.673-16.12.954-2.553,1.98-5.212,4.017-7.022,3.13-2.782,7.8-2.849,11.949-2.3a24.267,24.267,0,0,0,5.065.386,6.375,6.375,0,0,0,4.494-2.078c.9.585.568,1.938.384,3a2.987,2.987,0,0,0,.811,2.912c.843.643,2.416.113,2.346-.945-.758,2.243.916,4.722,3.071,5.7a8.571,8.571,0,0,0,2.246.649,5.4,5.4,0,0,1,4.633,5.425v.024a1.461,1.461,0,0,1-.188.837,1.566,1.566,0,0,1-.665.442,10.681,10.681,0,0,0-5.049,4.819c-.58,1.134-1.017,2.448-2.087,3.14-1.315.85-3.037.427-4.6.547a6.526,6.526,0,0,0-5.633,4.626c-.363,1.3-.314,2.71-1.126,3.863a2.2,2.2,0,0,1-1.532.966c-1.214.132-1.773-.958-2.644-1.52-2.048-1.321-3.355.423-4,2.069C241.405,408.4,240.909,409.173,238.551,409.593Z" transform="translate(-158.601 -224.896)" fill="#572142"/>
    <g id="Group_208" data-name="Group 208" transform="translate(77.203 185.26)" opacity="0.05">
      <path id="Path_330" data-name="Path 330" d="M341.289,472.505c15.119,11.612,22.829,30.33,23.9,33.076,2.088.342,3.492.623,3.492.623S361,485.339,344.649,472.785a29.572,29.572,0,0,0-14.951-6.059c-.763-.078-1.479-.118-2.164-.128A29.727,29.727,0,0,1,341.289,472.505Z" transform="translate(-293.999 -466.598)"/>
      <path id="Path_331" data-name="Path 331" d="M248.854,479.483c1.436,5.5,5.456,10.311,8.769,14.931l4.253,5.932.878-3.182-1.77-2.469c-3.313-4.62-7.332-9.431-8.769-14.931-.373-1.427-.238-1.12-1.12-1.12a9.3,9.3,0,0,0-2.323.522Z" transform="translate(-247.96 -473.622)"/>
      <path id="Path_332" data-name="Path 332" d="M371.758,557.21c.91,1.368,1.491,2.3,1.491,2.3-.489-2.2,3.5-2.586,8.152-2.323C377.751,556.8,373.962,556.629,371.758,557.21Z" transform="translate(-319.848 -519.341)"/>
      <path id="Path_333" data-name="Path 333" d="M287.85,531.714c-1.324-1.246-2.441-1.847-3.032-1.183-2.24,2.52,4.761,35.845,4.761,35.845l-42.759,3.129.193.512,45.927-3.361S286.844,537.641,287.85,531.714Z" transform="translate(-246.82 -503.808)"/>
    </g>
    <path id="Path_334" data-name="Path 334" d="M193.886,658.1c-2.68,2.218-10.289,7.533-19.684,5.52-9.365-2.008-1.509-6.5,2.081-8.247a1.4,1.4,0,0,0,.479-2.145,39.015,39.015,0,0,0-7.04-6.69,48.434,48.434,0,0,1-7.421-7.609v0c-1.257-1.521-2.411-3-3.352-4.251a1.406,1.406,0,0,1,1.493-2.2l18.36,4.985a1.4,1.4,0,0,1,.728.479l6.035,7.542,8.527,10.659A1.407,1.407,0,0,1,193.886,658.1Z" transform="translate(-118.089 -378.261)" fill="#ef91a3"/>
    <path id="Path_335" data-name="Path 335" d="M185.563,645.472c-15.321-11.174-21.1-9.177-23.263-6.55-1.257-1.521-2.411-3-3.352-4.251a1.406,1.406,0,0,1,1.493-2.2l18.36,4.985a1.4,1.4,0,0,1,.728.479Z" transform="translate(-118.089 -378.261)" opacity="0.1"/>
    <path id="Path_336" data-name="Path 336" d="M162.942,578.08s-24.644-8.121-20.723,8.961,8.961,21.283,8.961,21.283,1.4-13.442,25.2,4.2l-8.4-13.442,9.8-12.322Z" transform="translate(-108.23 -345.373)" fill="#5d526e"/>
    <path id="Path_337" data-name="Path 337" d="M157.664,539s-2.24,11.762,5.881,26.044c6.438,11.322-1.2,16.484-4.647,18.138a2.427,2.427,0,0,1-2.759-.463c-2.269-2.244-6.618-7.937-4.076-16.835l1.68-4.481-9.241-6.721s-2.5-9.274-1.39-11.358,10.071-7.685,10.071-7.685Z" transform="translate(-108.832 -321.691)" opacity="0.1"/>
    <path id="Path_338" data-name="Path 338" d="M157.664,537.647s-2.24,11.762,5.881,26.044c6.438,11.322-1.2,16.484-4.647,18.138a2.428,2.428,0,0,1-2.759-.463c-2.269-2.245-6.618-7.937-4.076-16.835l1.68-4.481L144.5,553.33s-2.5-9.274-1.39-11.358,10.071-7.685,10.071-7.685Z" transform="translate(-108.832 -320.903)" fill="#ef91a3"/>
    <path id="Path_339" data-name="Path 339" d="M177.906,488.455s-20.163,11.482-28.564,19.043-6.721,10.082-6.721,10.082,8.121-15.122,15.122-1.96c0,0,19.6-14.282,24.924-8.121S177.906,488.455,177.906,488.455Z" transform="translate(-108.631 -294.113)" fill="#dfecfb"/>
    <path id="Path_340" data-name="Path 340" d="M148.534,622.08l16.8-3.36-1.96,8.681L151.2,626.134Z" transform="translate(-86.82 -361.649)" fill="#5d526e"/>
    <path id="Path_341" data-name="Path 341" d="M226.537,527.758l-.56,6.161-20.163-3.36-6.161-3.921-9.241-3.36a16.083,16.083,0,0,0,.49-9.365,14.215,14.215,0,0,0-1.61-3.8c-3.921-6.441,16.522-3.641,16.522-3.641a27.034,27.034,0,0,0-.308,4.388c.042,4.68,1.367,11.274,8.709,10.174l6.161,3.641Z" transform="translate(-135.699 -304.292)" fill="#ffc1cd"/>
    <path id="Path_342" data-name="Path 342" d="M231.782,536.129s10.362-4.481,15.4,4.761,7.281,8.681,7.281,8.681l-10.081-6.441Z" transform="translate(-160.827 -321.345)" fill="#ffc1cd"/>
    <path id="Path_343" data-name="Path 343" d="M246,639.214s-7.841,6.441-3.361,14.562,32.485,6.721,32.485,6.721-17.777-6.679-13.369-29.1C261.759,631.394,249.084,635.014,246,639.214Z" transform="translate(-166.368 -377.663)" fill="#5f5470"/>
    <path id="Path_344" data-name="Path 344" d="M338.379,668.24l-2.8,10.642,9.8-1.96s-4.2-8.961-3.641-11.482S338.379,668.24,338.379,668.24Z" transform="translate(-221.498 -397.167)" fill="#5f5470"/>
    <path id="Path_345" data-name="Path 345" d="M352.131,642.128s25.484,2.52,32.485,6.441l5.321,1.68s1.96-.56,6.161,3.08l21.843,5.041,16.8,3.36s15.4,2.8,16.522,2.24,8.681,4.2,1.4,6.441-22.4-1.12-22.4-1.12-11.2-1.4-13.722-.56-19.6-1.68-19.6-1.68l-16.8,1.12s-2.8-4.2-10.082-2.8c-5.2,1-14.242-.569-19-1.549a4.728,4.728,0,0,1-3.7-3.764l-1.669-8.969Z" transform="translate(-227.407 -383.937)" fill="#ffc1cd"/>
    <path id="Path_346" data-name="Path 346" d="M352.131,642.128s25.484,2.52,32.485,6.441l5.321,1.68s1.96-.56,6.161,3.08l21.843,5.041,16.8,3.36s15.4,2.8,16.522,2.24,8.681,4.2,1.4,6.441-22.4-1.12-22.4-1.12-11.2-1.4-13.722-.56-19.6-1.68-19.6-1.68l-16.8,1.12s-2.8-4.2-10.082-2.8c-5.2,1-14.242-.569-19-1.549a4.728,4.728,0,0,1-3.7-3.764l-1.669-8.969Z" transform="translate(-227.407 -383.937)" opacity="0.05"/>
    <path id="Path_347" data-name="Path 347" d="M205.506,510.863a15.431,15.431,0,0,1-14.6,3.05,14.215,14.215,0,0,0-1.61-3.8c-3.921-6.441,16.522-3.641,16.522-3.641A27.035,27.035,0,0,0,205.506,510.863Z" transform="translate(-135.699 -304.292)" opacity="0.1"/>
    <circle id="Ellipse_68" data-name="Ellipse 68" cx="15.402" cy="15.402" r="15.402" transform="translate(44.351 178.939)" fill="#ffc1cd"/>
    <path id="Path_348" data-name="Path 348" d="M189.32,539.306s11.762,6.441,12.322,10.642-1.68,9.241-1.68,9.241,5.321,31.925,12.042,34.165l17.923-17.363,15.122-6.721s-8.961-.56-9.8-8.961,1.12-11.2-8.961-15.122-15.542-8.541-15.542-8.541l-2.6.657,13.385,7.044s7.561,4.481-12.042,1.12L191,538.746Z" transform="translate(-136.008 -322.282)" opacity="0.1"/>
    <path id="Path_349" data-name="Path 349" d="M188.646,537.958s11.762,6.441,12.322,10.641-1.68,9.241-1.68,9.241,5.321,31.925,12.042,34.165l17.923-17.363,15.122-6.721s-8.961-.56-9.8-8.961,1.12-11.2-8.961-15.122-15.542-8.541-15.542-8.541l-2.6.657L220.851,543s7.561,4.481-12.042,1.12L190.326,537.4Z" transform="translate(-135.614 -321.494)" fill="#ff808c"/>
    <path id="Path_350" data-name="Path 350" d="M185.924,546.22s-11.482-4.2-8.681,9.241,17.363,36.685,17.363,36.685l34.165-11.762s10.642-8.121,7.841-8.961-17.643,4.481-17.643,4.481l-20.163,3.08-4.761-13.442s4.481-3.081,3.08-7l-.042-.118a21.661,21.661,0,0,0-10.711-11.98Z" transform="translate(-128.691 -327.515)" opacity="0.1"/>
    <path id="Path_351" data-name="Path 351" d="M184.576,544.872s-11.482-4.2-8.681,9.241S193.257,590.8,193.257,590.8l34.165-11.762s10.642-8.121,7.841-8.961-17.643,4.481-17.643,4.481l-20.163,3.08L192.7,564.194s4.481-3.08,3.08-7l-.042-.118a21.661,21.661,0,0,0-10.711-11.98Z" transform="translate(-127.903 -326.726)" fill="#ffc1cd"/>
    <path id="Path_352" data-name="Path 352" d="M132.793,434.648a11.816,11.816,0,0,0-4.1-.429,12.022,12.022,0,0,0-3.728,1.19,35.675,35.675,0,0,0-5.386,3.112A15.14,15.14,0,0,1,116,440.662c-1.98.686-4.27.367-6.094,1.4-2.556,1.445-3.128,4.909-2.75,7.821s1.41,5.814.951,8.715c-.687,4.34-4.451,7.424-7.91,10.135-1.089.854-2.258,1.856-2.425,3.23a6.071,6.071,0,0,0,.474,2.531,21.5,21.5,0,0,1-.216,13.855,19.364,19.364,0,0,1-9.044,10.418c-1.59.83-3.518,1.678-3.891,3.432-.473,2.227,1.926,3.952,4.061,4.742a28.265,28.265,0,0,0,5.378,1.4,8.173,8.173,0,0,0,4.811-.353c1.713-.823,2.758-2.57,3.664-4.241,3.525-6.507,7.853-9.7,10.134-16.738.492-1.518,1.277-3.325,2.865-3.478a4.61,4.61,0,0,1,2.737,1.063c4.075,2.567,8.355-.31,12.149-3.278a20.671,20.671,0,0,1,2.606-2.085c2.076-1.139,5.1-.813,6.343-2.827a5.6,5.6,0,0,0,.6-1.7c.51-2.19,1.019-4.489.43-6.658-.545-2.008-1.967-3.653-2.805-5.558s-.886-4.506.826-5.689c.513-.354,1.131-.538,1.636-.9,1.471-1.067,1.5-3.2,1.5-5.016a2.672,2.672,0,0,1,.224-1.312,3.15,3.15,0,0,1,1.036-.951,10.194,10.194,0,0,0,3.661-4.522c.742-2-1.158-2.907-2.676-4.032A32.433,32.433,0,0,0,132.793,434.648Z" transform="translate(-75.05 -262.395)" opacity="0.1"/>
    <path id="Path_353" data-name="Path 353" d="M132.119,433.974a11.817,11.817,0,0,0-4.1-.429,12.021,12.021,0,0,0-3.728,1.19,35.676,35.676,0,0,0-5.386,3.112,15.141,15.141,0,0,1-3.585,2.141c-1.98.686-4.27.367-6.094,1.4-2.556,1.445-3.128,4.909-2.75,7.821s1.41,5.814.951,8.715c-.687,4.34-4.451,7.424-7.91,10.135-1.089.854-2.258,1.856-2.425,3.23a6.072,6.072,0,0,0,.474,2.531,21.5,21.5,0,0,1-.216,13.855,19.364,19.364,0,0,1-9.044,10.418c-1.59.83-3.518,1.678-3.891,3.432-.473,2.227,1.926,3.952,4.061,4.742a28.265,28.265,0,0,0,5.378,1.4,8.173,8.173,0,0,0,4.811-.353c1.713-.823,2.758-2.57,3.664-4.241,3.525-6.507,7.853-9.7,10.134-16.738.492-1.518,1.277-3.325,2.865-3.478a4.609,4.609,0,0,1,2.737,1.063c4.075,2.567,8.355-.31,12.149-3.278a20.684,20.684,0,0,1,2.606-2.085c2.076-1.139,5.1-.813,6.343-2.827a5.6,5.6,0,0,0,.6-1.7c.51-2.19,1.019-4.489.43-6.658-.545-2.008-1.967-3.653-2.805-5.558s-.886-4.506.826-5.689c.513-.354,1.131-.538,1.636-.9,1.471-1.067,1.5-3.2,1.5-5.016a2.672,2.672,0,0,1,.224-1.312,3.15,3.15,0,0,1,1.036-.951,10.194,10.194,0,0,0,3.661-4.522c.742-2-1.158-2.907-2.676-4.032a32.433,32.433,0,0,0-11.47-5.415Z" transform="translate(-74.656 -262.001)" fill="#b46d86"/>
    <path id="Path_354" data-name="Path 354" d="M378.073,618.958c-7.6,1.6-29.788.924-33.045-1.68-4.985-3.988-3.758-7.53-3.428-8.261h-.073s2.8-6.721,0-11.762a16.235,16.235,0,0,0-6.161-10.922c-5.881-4.761-12.322-18.2-12.322-18.2l-3.36,7s-5.052,15.371-10.292,22.2a10.88,10.88,0,0,0-2.083,4.618c-.347,1.851-1.546,4.184-5.268,4.831l-.193.034a13.884,13.884,0,0,1-13.73-5.828c-2.506-3.609-5.345-8.618-5.988-13.5a11.865,11.865,0,0,1,2.747-9.206l.031-.036c6.032-7.127,26.946-31.642,30.295-33.076,0,0,15.122-14.562,21,5.041s7.841,25.484,7.841,25.484,7.032,12.56,8.961,16.8c1.994,4.385,10.289,15.324,11.132,16.43.77.527,8.183,5.553,10.572,5.553C375.769,614.477,383.551,617.8,378.073,618.958Z" transform="translate(-190.201 -324.222)" fill="#ffc1cd"/>
    <g id="Group_209" data-name="Group 209" transform="translate(91.832 240.828)" opacity="0.05">
      <path id="Path_355" data-name="Path 355" d="M342.67,636.491a11.839,11.839,0,0,0-1.146-7.027,16.235,16.235,0,0,0-6.161-10.922c-5.881-4.761-12.322-18.2-12.322-18.2l-3.361,7s-5.052,15.372-10.291,22.2a10.88,10.88,0,0,0-2.084,4.618c-.347,1.851-1.546,4.184-5.268,4.831l-.193.034a13.884,13.884,0,0,1-13.73-5.828c-2.479-3.569-5.279-8.507-5.962-13.334a11.627,11.627,0,0,0-.026,3.2c.642,4.879,3.481,9.888,5.988,13.5a13.884,13.884,0,0,0,13.73,5.828l.193-.034c3.722-.647,4.92-2.98,5.268-4.831a10.879,10.879,0,0,1,2.083-4.618c5.24-6.825,10.292-22.2,10.292-22.2l3.36-7s6.441,13.442,12.322,18.2a16.235,16.235,0,0,1,6.161,10.922A10.006,10.006,0,0,1,342.67,636.491Z" transform="translate(-282.029 -600.34)"/>
    </g>
    <path id="Path_356" data-name="Path 356" d="M252.34,594.093s12.042-.28,11.2-4.2" transform="translate(-172.844 -353.405)" opacity="0.05"/>
    <path id="Path_357" data-name="Path 357" d="M727.661,620.6s18.7-12.88,36.978-8.31,4.57,20.359,4.57,20.359Z" transform="translate(-450.674 -365.925)" fill="#eed1d7"/>
    <path id="Path_358" data-name="Path 358" d="M709.661,608.906s18.281-7.894,30.746.415S777.8,621.786,777.8,621.786" transform="translate(-440.153 -362.538)" fill="#ccb2bb"/>
  </g>
</svg>
