<svg xmlns="http://www.w3.org/2000/svg" width="234.89" height="162.052" viewBox="0 0 234.89 162.052">
  <g id="Group_185" data-name="Group 185" transform="translate(17 -343.948)">
    <path id="Path_299" data-name="Path 299" d="M222.141,441.934c-12-6.572-28-1.325-39.814-8.228-10.513-6.143-13.974-19.878-13.326-32.038s4.368-24.092,4.01-36.264c-.2-6.651-1.777-13.571-6.191-18.551-5.338-6.021-13.825-8.156-21.853-8.714-21.56-1.5-42.664,6.054-62.549,14.52s-39.692,18.074-61.1,21.057A84.293,84.293,0,0,1,0,373.986V500H216.66c7.291-6.473,13.52-14.069,16.564-23.228C237.4,464.216,233.746,448.29,222.141,441.934Z" transform="translate(-17 6)" fill="#b28451" opacity="0.5"/>
  </g>
</svg>
