<svg id="undraw_success_factors_fay0" xmlns="http://www.w3.org/2000/svg" width="444" height="326.057" viewBox="0 0 444 326.057">
  <path id="Path_396" data-name="Path 396" d="M967.951,748.111c-1.423,12.94-76.123,11.854-76.01,0C893.362,735.171,968.061,736.258,967.951,748.111Z" transform="translate(-523.951 -431.356)" fill="#e6e6e6"/>
  <path id="Path_397" data-name="Path 397" d="M773.15,558.443,770.122,565l-5.552-.5-3.532-11.608,5.551-3.028Z" transform="translate(-380.467 -274.894)" fill="#ffb8b8"/>
  <path id="Path_398" data-name="Path 398" d="M814.914,596.763l.12,4.572-8.58.505v-5.552Z" transform="translate(-403.172 -298.103)" fill="#ffb8b8"/>
  <path id="Path_399" data-name="Path 399" d="M792.832,423.708l-2.019,40.375,5.047,43.909-15.141,2.019-9.589-55.516L768.1,416.642Z" transform="translate(-383.998 -208.292)" fill="#2f2e41"/>
  <path id="Path_400" data-name="Path 400" d="M972.614,504.805s6.056,39.871-6.561,52.993-29.777,36.338-29.777,36.338l-12.112-15.141,30.786-32.8-6.056-22.207-24.73-11.608,4.038-27.758,36.338-.5Z" transform="translate(-540.06 -304.026)" fill="#2f2e41"/>
  <circle id="Ellipse_75" data-name="Ellipse 75" cx="11.103" cy="11.103" r="11.103" transform="translate(391.674 86.215)" fill="#ffb8b8"/>
  <path id="Path_401" data-name="Path 401" d="M967.059,323.643s.5,15.645,3.028,17.664-9.084,10.6-9.084,10.6l-7.57-12.113v-11.1Z" transform="translate(-554.692 -223.802)" fill="#ffb8b8"/>
  <path id="Path_402" data-name="Path 402" d="M798.382,232.793l6.127-9.252,3.461,4.71,5.047,14.131-4.038,55.011-23.721.505-3.028-63.087,7.57-9.084Z" transform="translate(-391.062 -111.755)" fill="#d0cde1"/>
  <path id="Path_403" data-name="Path 403" d="M907.009,372.591l-4.038-.5s-1.009.5-1.514,4.038-6.561,34.824-6.561,34.824l8.075,38.357,9.084-12.113-5.551-21.2,5.552-21.2Z" transform="translate(-525.428 -248.02)" fill="#2f2e41"/>
  <path id="Path_404" data-name="Path 404" d="M859.944,248.1h3.028l7.57,40.88-7.065,31.8-7.066-11.608,2.019-12.617-1.009-11.1-3.533-6.561Z" transform="translate(-426.885 -124.032)" fill="#2f2e41"/>
  <path id="Path_405" data-name="Path 405" d="M917.786,686.468s3.028-1.009,3.028,1.009-2.019,8.075-2.019,8.075,3.028,18.674-1.514,17.664-8.075-9.589-8.58-12.113-3.028-15.645-3.028-15.645-4.037-9.589-1.514-10.094,9.589-2.523,9.589-2.523S909.71,685.458,917.786,686.468Z" transform="translate(-529.644 -398.377)" fill="#2f2e41"/>
  <path id="Path_406" data-name="Path 406" d="M959.421,728.8s8.075-5.047,9.589-1.009a42.409,42.409,0,0,1,2.019,9.084s2.019,6.561-6.056,5.552-7.066-1.009-7.57-4.038S959.421,728.8,959.421,728.8Z" transform="translate(-556.644 -425.067)" fill="#2f2e41"/>
  <path id="Path_407" data-name="Path 407" d="M954.949,301.394l-2.019-.5s-1.514-8.58-5.047-7.57-12.617,2.019-12.617-2.019,8.58-7.57,13.627-7.066,13.627,2.019,13.122,9.589a50.8,50.8,0,0,1-3.761,14.935l-.263-4.488Z" transform="translate(-545.611 -204.076)" fill="#2f2e41"/>
  <path id="Path_408" data-name="Path 408" d="M794.392,241.036l8.58-6.056-8.58-7.065-2.978,3.574Z" transform="translate(-395.653 -113.941)" fill="#d0cde1"/>
  <path id="Path_409" data-name="Path 409" d="M822.1,238.513l-7.57-5.552,6.056-9.084,3.533,4.542Z" transform="translate(-407.208 -111.923)" fill="#d0cde1"/>
  <path id="Path_410" data-name="Path 410" d="M912.053,361.239l16.15-6.561,3.785-2.776,11.356,50.217,7.57-22.711-2.271-29.02,20.945,10.851-7.066,34.319-1.009,13.122,3.028,10.6s10.6,7.57,7.066,15.645-7.57,8.58-7.57,8.58-17.16-16.15-18.169-20.188-2.523-11.1-2.523-11.1-8.58,32.3-18.674,31.8-10.094-11.1-10.094-11.1l2.523-11.1,4.037-11.608-2.019-19.178Z" transform="translate(-534.006 -237.173)" fill="#2f2e41"/>
  <rect id="Rectangle_250" data-name="Rectangle 250" width="351.836" height="225.331" transform="translate(0.15 0.199)" fill="#e6e6e6"/>
  <rect id="Rectangle_251" data-name="Rectangle 251" width="331.715" height="85.898" transform="translate(10.211 28.462)" fill="#fff"/>
  <rect id="Rectangle_252" data-name="Rectangle 252" width="70.15" height="4.027" transform="translate(92.722 40.869)" fill="#e6e6e6"/>
  <rect id="Rectangle_253" data-name="Rectangle 253" width="108.327" height="4.027" transform="translate(92.722 55.558)" fill="#b28451"/>
  <rect id="Rectangle_254" data-name="Rectangle 254" width="88.284" height="4.027" transform="translate(92.722 69.398)" fill="#e6e6e6"/>
  <rect id="Rectangle_255" data-name="Rectangle 255" width="51.539" height="4.027" transform="translate(92.722 83.184)" fill="#e6e6e6"/>
  <rect id="Rectangle_256" data-name="Rectangle 256" width="77.786" height="4.027" transform="translate(92.722 96.971)" fill="#e6e6e6"/>
  <rect id="Rectangle_257" data-name="Rectangle 257" width="8.59" height="8.59" transform="translate(60.748 39.438)" fill="#e6e6e6"/>
  <rect id="Rectangle_258" data-name="Rectangle 258" width="8.59" height="8.59" transform="translate(60.748 53.277)" fill="#b28451"/>
  <rect id="Rectangle_259" data-name="Rectangle 259" width="8.59" height="8.59" transform="translate(60.748 67.116)" fill="#e6e6e6"/>
  <rect id="Rectangle_260" data-name="Rectangle 260" width="8.59" height="8.59" transform="translate(60.748 80.955)" fill="#e6e6e6"/>
  <rect id="Rectangle_261" data-name="Rectangle 261" width="8.59" height="8.59" transform="translate(60.748 94.794)" fill="#e6e6e6"/>
  <rect id="Rectangle_262" data-name="Rectangle 262" width="28.633" height="28.633" transform="translate(266.905 59.003)" fill="#e6e6e6"/>
  <rect id="Rectangle_263" data-name="Rectangle 263" width="331.715" height="85.898" transform="translate(10.211 126.29)" fill="#fff"/>
  <rect id="Rectangle_264" data-name="Rectangle 264" width="8.59" height="8.59" transform="translate(75.542 133.924)" fill="#e6e6e6"/>
  <rect id="Rectangle_265" data-name="Rectangle 265" width="8.59" height="8.59" transform="translate(60.748 133.924)" fill="#b28451"/>
  <path id="Path_411" data-name="Path 411" d="M514.2,410.6a32.527,32.527,0,0,0-52.509-4.851L459.6,403.92a35.3,35.3,0,0,1,56.994,5.264Z" transform="translate(-307.809 -257.891)" fill="#e6e6e6"/>
  <path id="Path_412" data-name="Path 412" d="M569.1,464.162l-2.307-1.551a32.543,32.543,0,0,0,1-34.663l2.392-1.416a35.324,35.324,0,0,1-1.082,37.63Z" transform="translate(-361.399 -275.239)" fill="#b28451"/>
  <path id="Path_413" data-name="Path 413" d="M451.177,462.773a35.3,35.3,0,0,1-.29-46.767l2.093,1.829a32.52,32.52,0,0,0,.267,43.083Z" transform="translate(-299.099 -269.977)" fill="#b28451"/>
  <path id="Path_414" data-name="Path 414" d="M486.48,515.862a35.359,35.359,0,0,1-26.3-11.758l2.071-1.855a32.526,32.526,0,0,0,51.245-3.569l2.307,1.551A35.282,35.282,0,0,1,486.48,515.862Z" transform="translate(-308.098 -311.308)" fill="#b28451"/>
  <rect id="Rectangle_266" data-name="Rectangle 266" width="28.633" height="28.633" transform="translate(266.905 152.537)" fill="#e6e6e6"/>
  <rect id="Rectangle_267" data-name="Rectangle 267" width="28.633" height="28.633" transform="translate(59.556 171.148)" fill="#e6e6e6"/>
  <rect id="Rectangle_268" data-name="Rectangle 268" width="351.836" height="14.947" fill="#b28451"/>
  <circle id="Ellipse_76" data-name="Ellipse 76" cx="2.77" cy="2.77" r="2.77" transform="translate(8.337 4.871)" fill="#fff"/>
  <circle id="Ellipse_77" data-name="Ellipse 77" cx="2.77" cy="2.77" r="2.77" transform="translate(18.853 4.871)" fill="#fff"/>
  <circle id="Ellipse_78" data-name="Ellipse 78" cx="2.77" cy="2.77" r="2.77" transform="translate(29.368 4.871)" fill="#fff"/>
</svg>
