<svg xmlns="http://www.w3.org/2000/svg" width="12.06" height="22.069" viewBox="0 0 12.06 22.069">
  <path id="dollar-currency-symbol" d="M88.937,15.126a4.716,4.716,0,0,0-2.054-4.1,12.3,12.3,0,0,0-3.6-1.519c-2.6-.788-3.354-1.2-3.354-2.447,0-1.385,1.8-1.878,3.34-1.878a6.442,6.442,0,0,1,3.215.866l1.589-2.462a9.109,9.109,0,0,0-3.9-1.286V0H81.242V2.46c-2.606.573-4.248,2.277-4.248,4.6a4.4,4.4,0,0,0,2,3.825,12.3,12.3,0,0,0,3.434,1.428c2.55.771,3.586,1.24,3.574,2.8v.011c0,1.306-1.73,1.77-3.212,1.77a5.5,5.5,0,0,1-3.786-1.526l-2.13,2.015a8.175,8.175,0,0,0,4.364,2.294v2.4h2.932V19.723C87.071,19.308,88.935,17.565,88.937,15.126Z" transform="translate(-76.878)" fill="#c69963"/>
</svg>
