<svg xmlns="http://www.w3.org/2000/svg" width="23.038" height="16.415" viewBox="0 0 23.038 16.415"><g id="email" transform="translate(0 -33.085)"><path id="Path_73" data-name="Path 73" d="M166.943,48.884c0-.026.018-.052.017-.078l-7.03,6.774,7.022,6.558c0-.047-.009-.094-.009-.142Z" transform="translate(-143.921 -14.147)" fill="#b28451"/><path id="Path_74" data-name="Path 74" d="M24.842,126.9l-2.87,2.761a.751.751,0,0,1-1.032.008L18.078,127l-7.068,6.813a1.629,1.629,0,0,0,.55.11H31.344a1.627,1.627,0,0,0,.79-.218Z" transform="translate(-9.908 -84.426)" fill="#b28451"/><path id="Path_75" data-name="Path 75" d="M17.052,43.662,27.781,33.326a1.626,1.626,0,0,0-.829-.241H7.168a1.631,1.631,0,0,0-1.038.387Z" transform="translate(-5.516)" fill="#b28451"/><path id="Path_76" data-name="Path 76" d="M0,52.1V64.96a1.633,1.633,0,0,0,.071.426l6.98-6.722Z" transform="translate(0 -17.112)" fill="#b28451"/></g></svg>