<svg xmlns="http://www.w3.org/2000/svg" xmlns:xlink="http://www.w3.org/1999/xlink" width="559.022" height="399" viewBox="0 0 559.022 399">
  <defs>
    <clipPath id="clip-path">
      <rect id="Rectangle_25" data-name="Rectangle 25" width="544" height="399" transform="translate(277 107)" fill="#f9f7f6"/>
    </clipPath>
  </defs>
  <g id="Group_218" data-name="Group 218" transform="translate(-1064 -854)">
    <path id="Path_361" data-name="Path 361" d="M518.331,388.589c-44.5,17.817-74.975,53.079-119.975,70.1-20.556,7.774-43.744,11.565-62.06,22.284-24.233,14.183-35.8,37.956-44.781,60.719A627.3,627.3,0,0,0,264.672,627.2H823.694c-22.643-37.885-40.5-79.005-61.254-116.437-26.465-47.741-57.175-99.129-116.125-122.433C606.738,372.685,557.809,372.783,518.331,388.589Z" transform="translate(799.328 564.871)" fill="rgba(178,132,81,0.5)"/>
    <g id="Mask_Group_1" data-name="Mask Group 1" transform="translate(795 747)" clip-path="url(#clip-path)">
      <g id="undraw_buy_house_560d" transform="translate(277 179.652)">
        <path id="Path_136" data-name="Path 136" d="M187.688,605.993l-.934-.21a212.5,212.5,0,0,1,414.405-.565l-.933.212c-22.034-96.751-106.829-164.323-206.2-164.323C295.948,441.107,209.173,510.451,187.688,605.993Z" transform="translate(-127.45 -353.094)" fill="#3f3d56"/>
        <path id="Path_137" data-name="Path 137" d="M1250.267,577.51l1.435,10.526-10.048.957,1.435-12.919Z" transform="translate(-747.155 -346.648)" fill="#a0616a"/>
        <path id="Path_138" data-name="Path 138" d="M1167.083,438.413s.957,12.919.957,13.4-6.7,33.493-6.7,33.493-9.569,18.182,0,17.7,6.7-17.225,6.7-17.225l10.048-27.751-4.306-19.617Z" transform="translate(-711.34 -352.049)" fill="#a0616a"/>
        <path id="Path_139" data-name="Path 139" d="M1181.818,577.51l-1.435,10.526,10.048.957L1189,576.075Z" transform="translate(-710.285 -346.648)" fill="#a0616a"/>
        <path id="Path_140" data-name="Path 140" d="M1189.62,550.133l-2.392,3.349s-1.435,14.354,0,19.139,4.306,26.794,4.306,28.23.478,2.392,0,2.871-1.914.478-.957,1.435.957,3.828.957,3.828v2.392l6.22,35.407s-3.828,4.306-.957,4.306,13.4,0,12.919-4.785l-.957-.479s-1.436-31.579-.957-33.014a12.211,12.211,0,0,0,0-4.306s-.957-1.435,0-1.914.957-4.306.957-4.306l4.306-29.187s3.828,19.617,6.22,21.531,1.914,6.7,1.914,6.7l1.914,42.105s-1.914,4.785,0,5.742,10.048,4.306,10.526-.479,2.871-46.412,2.871-48.326-.478-2.871,0-4.306-.478-1.435,0-1.435-.957-1.435-.957-2.392V568.793s.479-4.785.957-5.742-.478-1.914,0-3.349-.957-6.22-.957-6.22l-21.531-5.742Z" transform="translate(-729.092 -417.836)" fill="#2f2e41"/>
        <path id="Path_141" data-name="Path 141" d="M1215.707,819.248s2.392-2.392-.957-2.392a15.572,15.572,0,0,0-6.22,1.435l-2.392,8.612s-9.809,7.895,1.2,6.938,9.33-.239,9.33-.239,3.349-.957,3.828-1.914-.957-14.833-.957-14.833S1218.1,820.684,1215.707,819.248Z" transform="translate(-738.432 -579.774)" fill="#2f2e41"/>
        <path id="Path_142" data-name="Path 142" d="M1278.429,819.248s-2.392-2.392.957-2.392a15.573,15.573,0,0,1,6.22,1.435L1288,826.9s9.809,7.895-1.2,6.938-10.766-.239-10.766-.239-3.349-.957-3.828-1.914,2.392-14.833,2.392-14.833S1276.037,820.684,1278.429,819.248Z" transform="translate(-780.58 -579.774)" fill="#2f2e41"/>
        <rect id="Rectangle_26" data-name="Rectangle 26" width="4.26" height="168.256" transform="translate(136.91 84.896)" fill="#3f3d56"/>
        <path id="Path_143" data-name="Path 143" d="M365.269,327.9c.271,58.835-41.122,106.722-41.122,106.722s-41.833-47.5-42.1-106.338,41.122-106.722,41.122-106.722S365,269.062,365.269,327.9Z" transform="translate(-184.788 -221.559)" fill="#c69963"/>
        <rect id="Rectangle_27" data-name="Rectangle 27" width="329.666" height="69.857" transform="translate(107.895 183.494)" fill="#f2f2f2"/>
        <path id="Path_144" data-name="Path 144" d="M244.486,366.461l35.885-75.12h286.6l26.794,75.12Z" transform="translate(-147.118 -175.312)" fill="#3f3d56"/>
        <rect id="Rectangle_28" data-name="Rectangle 28" width="133.015" height="44.019" transform="translate(186.843 120.814)" fill="#f2f2f2"/>
        <path id="Path_145" data-name="Path 145" d="M458.966,213.25l-21.053,44.019h157.9l-12.44-44.019Z" transform="translate(-263.51 -128.321)" fill="#3f3d56"/>
        <rect id="Rectangle_29" data-name="Rectangle 29" width="105.024" height="55.981" transform="translate(198.565 197.369)" fill="#ccc"/>
        <rect id="Rectangle_30" data-name="Rectangle 30" width="55.981" height="54.067" transform="translate(120.814 199.283)" fill="#ccc"/>
        <rect id="Rectangle_31" data-name="Rectangle 31" width="28.947" height="50.718" transform="translate(321.772 202.632)" fill="#3f3d56"/>
        <rect id="Rectangle_32" data-name="Rectangle 32" width="544.021" height="0.957" transform="translate(0 253.111)" fill="#3f3d56"/>
        <rect id="Rectangle_33" data-name="Rectangle 33" width="2.811" height="111.031" transform="translate(86.079 142.134)" fill="#3f3d56"/>
        <path id="Path_146" data-name="Path 146" d="M243.2,507.95c.179,38.825-27.136,70.425-27.136,70.425s-27.605-31.347-27.784-70.172,27.136-70.425,27.136-70.425S243.017,469.126,243.2,507.95Z" transform="translate(-128.364 -351.667)" fill="#c69963"/>
        <path id="Path_147" data-name="Path 147" d="M243.2,507.95c.179,38.825-27.136,70.425-27.136,70.425s-27.605-31.347-27.784-70.172,27.136-70.425,27.136-70.425S243.017,469.126,243.2,507.95Z" transform="translate(-128.364 -351.667)" opacity="0.1"/>
        <rect id="Rectangle_34" data-name="Rectangle 34" width="2.811" height="111.031" transform="translate(49.538 142.134)" fill="#3f3d56"/>
        <path id="Path_148" data-name="Path 148" d="M151.442,507.95c.179,38.825-27.136,70.425-27.136,70.425S96.7,547.028,96.522,508.2s27.136-70.425,27.136-70.425S151.263,469.126,151.442,507.95Z" transform="translate(-73.152 -351.667)" fill="#c69963"/>
        <rect id="Rectangle_35" data-name="Rectangle 35" width="14.115" height="13.158" transform="translate(382.059 205.503)" fill="#3f3d56"/>
        <rect id="Rectangle_36" data-name="Rectangle 36" width="14.115" height="13.158" transform="translate(400.959 205.503)" fill="#3f3d56"/>
        <rect id="Rectangle_37" data-name="Rectangle 37" width="14.115" height="13.636" transform="translate(382.059 223.446)" fill="#3f3d56"/>
        <rect id="Rectangle_38" data-name="Rectangle 38" width="14.115" height="13.636" transform="translate(400.959 223.446)" fill="#3f3d56"/>
        <rect id="Rectangle_39" data-name="Rectangle 39" width="11.046" height="10.298" transform="translate(199.044 132.859)" fill="#3f3d56"/>
        <rect id="Rectangle_40" data-name="Rectangle 40" width="11.046" height="10.298" transform="translate(213.835 132.859)" fill="#3f3d56"/>
        <rect id="Rectangle_41" data-name="Rectangle 41" width="11.046" height="10.672" transform="translate(199.044 146.901)" fill="#3f3d56"/>
        <rect id="Rectangle_42" data-name="Rectangle 42" width="11.046" height="10.672" transform="translate(213.835 146.901)" fill="#3f3d56"/>
        <rect id="Rectangle_43" data-name="Rectangle 43" width="11.046" height="10.298" transform="translate(281.819 132.859)" fill="#3f3d56"/>
        <rect id="Rectangle_44" data-name="Rectangle 44" width="11.046" height="10.298" transform="translate(296.61 132.859)" fill="#3f3d56"/>
        <rect id="Rectangle_45" data-name="Rectangle 45" width="11.046" height="10.672" transform="translate(281.819 146.901)" fill="#3f3d56"/>
        <rect id="Rectangle_46" data-name="Rectangle 46" width="11.046" height="10.672" transform="translate(296.61 146.901)" fill="#3f3d56"/>
        <rect id="Rectangle_47" data-name="Rectangle 47" width="11.046" height="10.298" transform="translate(240.671 132.859)" fill="#3f3d56"/>
        <rect id="Rectangle_48" data-name="Rectangle 48" width="11.046" height="10.298" transform="translate(255.462 132.859)" fill="#3f3d56"/>
        <rect id="Rectangle_49" data-name="Rectangle 49" width="11.046" height="10.672" transform="translate(240.671 146.901)" fill="#3f3d56"/>
        <rect id="Rectangle_50" data-name="Rectangle 50" width="11.046" height="10.672" transform="translate(255.462 146.901)" fill="#3f3d56"/>
        <rect id="Rectangle_51" data-name="Rectangle 51" width="6.955" height="6.484" transform="translate(328.231 207.771)" fill="#f2f2f2"/>
        <rect id="Rectangle_52" data-name="Rectangle 52" width="6.955" height="6.484" transform="translate(337.544 207.771)" fill="#f2f2f2"/>
        <rect id="Rectangle_53" data-name="Rectangle 53" width="6.955" height="6.719" transform="translate(328.231 216.612)" fill="#f2f2f2"/>
        <rect id="Rectangle_54" data-name="Rectangle 54" width="6.955" height="6.719" transform="translate(337.544 216.612)" fill="#f2f2f2"/>
        <circle id="Ellipse_15" data-name="Ellipse 15" cx="1.914" cy="1.914" r="1.914" transform="translate(344.977 229.666)" fill="#f2f2f2"/>
        <rect id="Rectangle_55" data-name="Rectangle 55" width="105.264" height="0.957" transform="translate(198.565 203.35)" fill="#f2f2f2"/>
        <rect id="Rectangle_56" data-name="Rectangle 56" width="105.264" height="0.957" transform="translate(198.565 207.656)" fill="#f2f2f2"/>
        <rect id="Rectangle_57" data-name="Rectangle 57" width="105.264" height="0.957" transform="translate(198.565 211.963)" fill="#f2f2f2"/>
        <rect id="Rectangle_58" data-name="Rectangle 58" width="105.264" height="0.957" transform="translate(198.565 216.269)" fill="#f2f2f2"/>
        <rect id="Rectangle_59" data-name="Rectangle 59" width="105.264" height="0.957" transform="translate(198.565 220.575)" fill="#f2f2f2"/>
        <rect id="Rectangle_60" data-name="Rectangle 60" width="105.264" height="0.957" transform="translate(198.565 224.881)" fill="#f2f2f2"/>
        <rect id="Rectangle_61" data-name="Rectangle 61" width="105.264" height="0.957" transform="translate(198.565 229.188)" fill="#f2f2f2"/>
        <rect id="Rectangle_62" data-name="Rectangle 62" width="105.264" height="0.957" transform="translate(198.565 233.494)" fill="#f2f2f2"/>
        <rect id="Rectangle_63" data-name="Rectangle 63" width="105.264" height="0.957" transform="translate(198.565 237.8)" fill="#f2f2f2"/>
        <rect id="Rectangle_64" data-name="Rectangle 64" width="105.264" height="0.957" transform="translate(198.565 242.106)" fill="#f2f2f2"/>
        <rect id="Rectangle_65" data-name="Rectangle 65" width="105.264" height="0.957" transform="translate(198.565 246.412)" fill="#f2f2f2"/>
        <rect id="Rectangle_66" data-name="Rectangle 66" width="55.981" height="0.957" transform="translate(120.814 203.35)" fill="#f2f2f2"/>
        <rect id="Rectangle_67" data-name="Rectangle 67" width="55.981" height="0.957" transform="translate(120.814 207.656)" fill="#f2f2f2"/>
        <rect id="Rectangle_68" data-name="Rectangle 68" width="55.981" height="0.957" transform="translate(120.814 211.963)" fill="#f2f2f2"/>
        <rect id="Rectangle_69" data-name="Rectangle 69" width="55.981" height="0.957" transform="translate(120.814 216.269)" fill="#f2f2f2"/>
        <rect id="Rectangle_70" data-name="Rectangle 70" width="55.981" height="0.957" transform="translate(120.814 220.575)" fill="#f2f2f2"/>
        <rect id="Rectangle_71" data-name="Rectangle 71" width="55.981" height="0.957" transform="translate(120.814 224.881)" fill="#f2f2f2"/>
        <rect id="Rectangle_72" data-name="Rectangle 72" width="55.981" height="0.957" transform="translate(120.814 229.188)" fill="#f2f2f2"/>
        <rect id="Rectangle_73" data-name="Rectangle 73" width="55.981" height="0.957" transform="translate(120.814 233.494)" fill="#f2f2f2"/>
        <rect id="Rectangle_74" data-name="Rectangle 74" width="55.981" height="0.957" transform="translate(120.814 237.8)" fill="#f2f2f2"/>
        <rect id="Rectangle_75" data-name="Rectangle 75" width="55.981" height="0.957" transform="translate(120.814 242.106)" fill="#f2f2f2"/>
        <rect id="Rectangle_76" data-name="Rectangle 76" width="55.981" height="0.957" transform="translate(120.814 246.412)" fill="#f2f2f2"/>
        <circle id="Ellipse_16" data-name="Ellipse 16" cx="38.756" cy="38.756" r="38.756" transform="translate(380.863 77.034)" fill="#c69963"/>
        <path id="Path_149" data-name="Path 149" d="M1041.166,250.043h-20.574V229.469h-7.655v20.574H992.362V257.7h20.574v20.574h7.655V257.7h20.574Z" transform="translate(-597.146 -138.081)" fill="#fff"/>
        <circle id="Ellipse_17" data-name="Ellipse 17" cx="12.44" cy="12.44" r="12.44" transform="translate(454.308 23.684)" fill="#a0616a"/>
        <path id="Path_150" data-name="Path 150" d="M1199,327.862s1.914,9.569,1.914,11,8.134,5.742,8.134,5.742l9.091-11.483s-5.742-8.134-5.742-10.048Z" transform="translate(-736.562 -282.647)" fill="#a0616a"/>
        <path id="Path_151" data-name="Path 151" d="M1188.831,351.193s-4.17-1.11-5.434-2.947c0,0-13.226,13-13.226,15.388l10.526,18.66s0,6.7.957,7.177,0,0,0,1.914-2.871,14.354-1.914,16.268,1.914.478.957,3.349-3.349,18.182-3.349,18.182,8.612-2.871,21.053,1.914,27.273-1.914,27.273-1.914-3.828-8.612-2.871-11.483-2.393-8.134-2.393-8.134l-2.392-44.019s3.349-19.617.957-20.574l-4.785-1.914-15.321-1.883S1195.051,350.714,1188.831,351.193Z" transform="translate(-719.212 -293.537)" fill="#d0cde1"/>
        <path id="Path_152" data-name="Path 152" d="M1173.349,389.155l-4.785,3.349s-2.392,7.177,0,10.526a24.54,24.54,0,0,1,3.349,8.134l9.569-.957Z" transform="translate(-717.605 -322.408)" fill="#d0cde1"/>
        <path id="Path_153" data-name="Path 153" d="M1200.037,399.968s-2.771,7.125-2.192,14.174a7.468,7.468,0,0,0,1.235,3.529h0l-33.945,16.115s-15.338,1.588-11.51,8.287,17.7-3.349,17.7-3.349,36.364-5.263,39.235-10.526,4.785-27.273,4.785-27.273Z" transform="translate(-708.887 -328.915)" fill="#a0616a"/>
        <path id="Path_154" data-name="Path 154" d="M1179.649,267.669l-2.158-.864s4.512-4.967,10.79-4.535l-1.766-1.944s4.316-1.728,8.239,2.808a38.293,38.293,0,0,1,5.936,8.344H1203l-.964,2.124,3.376,2.124-3.465-.381a11.751,11.751,0,0,1-.328,5.5l.093,1.679s-4.016-6.214-4.016-7.078v2.16s-2.158-1.944-2.158-3.24l-1.177,1.512-.589-2.376-7.258,2.376,1.177-1.944-4.512.648,1.766-2.376s-5.1,2.808-5.3,5.183-2.746,5.4-2.746,5.4l-1.177-2.16S1173.959,270.909,1179.649,267.669Z" transform="translate(-722.398 -244.692)" fill="#2f2e41"/>
        <path id="Path_155" data-name="Path 155" d="M1269.632,350.71h7.177s5.263.957,6.7,10.526,2.871,11.962,1.436,11.962-18.66-.478-18.66-.957S1269.632,350.71,1269.632,350.71Z" transform="translate(-777.047 -299.274)" fill="#d0cde1"/>
      </g>
    </g>
  </g>
</svg>
