<svg xmlns="http://www.w3.org/2000/svg" width="23.338" height="22.863" viewBox="0 0 23.338 22.863">
  <g id="location-pointer" transform="translate(0 -0.468)">
    <g id="Group_233" data-name="Group 233" transform="translate(0 0.468)">
      <path id="Path_391" data-name="Path 391" d="M17.039,28.312q-.546.88-1.191,1.834c3.619.541,5.473,1.7,5.473,2.277,0,.768-3.284,2.568-9.651,2.568s-9.651-1.8-9.651-2.568c0-.577,1.853-1.736,5.473-2.277q-.646-.954-1.192-1.834C2.727,28.986,0,30.37,0,32.423c0,3.011,5.871,4.587,11.669,4.587s11.669-1.576,11.669-4.587C23.339,30.37,20.612,28.986,17.039,28.312Z" transform="translate(0 -14.148)" fill="#b28451"/>
      <g id="Group_232" data-name="Group 232" transform="translate(4.845)">
        <path id="Path_392" data-name="Path 392" d="M16.375.468a6.85,6.85,0,0,0-6.851,6.85c0,2.714,3.524,7.906,5.517,10.626a1.652,1.652,0,0,0,2.667,0c1.993-2.719,5.517-7.912,5.517-10.626A6.85,6.85,0,0,0,16.375.468Zm0,11.1a4.054,4.054,0,1,1,4.053-4.053A4.058,4.058,0,0,1,16.375,11.571Z" transform="translate(-9.524 -0.468)" fill="#b28451"/>
        <path id="Path_393" data-name="Path 393" d="M20.61,9.479a2.465,2.465,0,1,0,2.466,2.466A2.468,2.468,0,0,0,20.61,9.479Z" transform="translate(-13.759 -4.895)" fill="#b28451"/>
      </g>
    </g>
  </g>
</svg>
