<svg id="undraw_secure_login_pdn4" xmlns="http://www.w3.org/2000/svg" width="578.679" height="402.618" viewBox="0 0 578.679 402.618">
  <ellipse id="Ellipse_69" data-name="Ellipse 69" cx="115.298" cy="8.757" rx="115.298" ry="8.757" transform="translate(0 385.104)" fill="#e6e6e6"/>
  <path id="Path_366" data-name="Path 366" d="M324.272,273.82c20.065-8.534,45.057-3.127,69.464.626.227-4.545,2.98-10.076.1-13.247-3.5-3.852-3.181-7.9-1.073-11.97,5.391-10.41-2.333-21.486-10.132-30.7a17.272,17.272,0,0,0-14.416-6.051l-14.447,1.032A17.3,17.3,0,0,0,338.4,225.88h0c-3.45,4.692-5.3,9.37-4.133,14.024-5.167,3.531-6.035,7.793-3.713,12.6a7.242,7.242,0,0,1-.09,8.834,40.787,40.787,0,0,0-6.064,12.045Z" transform="translate(-236.141 -184.486)" fill="#2f2e41"/>
  <path id="Path_367" data-name="Path 367" d="M821.169,641.233H412.212A13.712,13.712,0,0,1,398.5,627.52h0q222.37-25.844,436.381,0h0a13.712,13.712,0,0,1-13.712,13.712Z" transform="translate(-256.202 -293.177)" fill="#2f2e41"/>
  <path id="Path_368" data-name="Path 368" d="M834.881,525.566,398.5,524.759l50.575-85.1.242-.4V251.711a17.333,17.333,0,0,1,17.336-17.334H764.31a17.333,17.333,0,0,1,17.334,17.336V440.548Z" transform="translate(-256.202 -190.416)" fill="#3f3d56"/>
  <path id="Path_369" data-name="Path 369" d="M489.259,250.957a5.653,5.653,0,0,0-5.646,5.646v171a5.653,5.653,0,0,0,5.646,5.646H790.128a5.653,5.653,0,0,0,5.646-5.646v-171a5.653,5.653,0,0,0-5.646-5.646Z" transform="translate(-279.205 -194.897)" fill="#fff"/>
  <path id="Path_370" data-name="Path 370" d="M486.41,531.718a2.427,2.427,0,0,0-2.2,1.408L468.628,567a2.42,2.42,0,0,0,2.2,3.431H798.544a2.419,2.419,0,0,0,2.164-3.5l-16.939-33.878a2.407,2.407,0,0,0-2.164-1.338Z" transform="translate(-275.095 -270.777)" fill="#2f2e41"/>
  <circle id="Ellipse_70" data-name="Ellipse 70" cx="3.63" cy="3.63" r="3.63" transform="translate(355.649 45.977)" fill="#fff"/>
  <path id="Path_371" data-name="Path 371" d="M649.356,593.619a2.423,2.423,0,0,0-2.336,1.79l-3.909,14.519a2.42,2.42,0,0,0,2.336,3.049h74.341a2.419,2.419,0,0,0,2.286-3.212l-5.026-14.519a2.421,2.421,0,0,0-2.287-1.628Z" transform="translate(-322.289 -287.507)" fill="#2f2e41"/>
  <path id="Path_372" data-name="Path 372" d="M596.875,337.135v3.226H264.306l.25-.4v-2.823Z" transform="translate(-71.433 -91.116)" fill="#2f2e41"/>
  <circle id="Ellipse_71" data-name="Ellipse 71" cx="56.463" cy="56.463" r="56.463" transform="translate(459.703 0)" fill="#c69963"/>
  <path id="Path_373" data-name="Path 373" d="M924.368,272.377H877.584a3.23,3.23,0,0,1-3.227-3.226V240.919a3.23,3.23,0,0,1,3.227-3.226h46.784a3.23,3.23,0,0,1,3.227,3.226v28.232a3.23,3.23,0,0,1-3.226,3.226Zm-46.784-31.458v28.232H924.37l0-28.232Z" transform="translate(-384.81 -191.312)" fill="#fff"/>
  <path id="Path_374" data-name="Path 374" d="M919.976,231.359H890.938V218.453c0-9.348,6.106-16.132,14.519-16.132s14.519,6.785,14.519,16.132Zm-25.812-3.226H916.75v-9.68c0-7.6-4.644-12.906-11.293-12.906s-11.293,5.307-11.293,12.906Z" transform="translate(-389.291 -181.752)" fill="#fff"/>
  <circle id="Ellipse_72" data-name="Ellipse 72" cx="3.226" cy="3.226" r="3.226" transform="translate(512.94 59.69)" fill="#fff"/>
  <path id="Path_375" data-name="Path 375" d="M769.108,396.732H536.585a4.311,4.311,0,0,1-4.306-4.306V334.747a4.311,4.311,0,0,1,4.306-4.306H769.108a4.311,4.311,0,0,1,4.306,4.306v57.679A4.311,4.311,0,0,1,769.108,396.732ZM536.585,332.164A2.586,2.586,0,0,0,534,334.747v57.679a2.586,2.586,0,0,0,2.584,2.584H769.108a2.586,2.586,0,0,0,2.584-2.584V334.747a2.586,2.586,0,0,0-2.584-2.584Z" transform="translate(-292.358 -216.379)" fill="#e6e6e6"/>
  <circle id="Ellipse_73" data-name="Ellipse 73" cx="17.54" cy="17.54" r="17.54" transform="translate(262.816 127.454)" fill="#e6e6e6"/>
  <path id="Path_376" data-name="Path 376" d="M642.12,356.8a2.923,2.923,0,1,0,0,5.847H779.936a2.923,2.923,0,0,0,0-5.847Z" transform="translate(-321.254 -223.504)" fill="#e6e6e6"/>
  <path id="Path_377" data-name="Path 377" d="M642.12,380.842a2.923,2.923,0,1,0,0,5.847h59.3a2.923,2.923,0,1,0,0-5.847Z" transform="translate(-321.254 -230)" fill="#e6e6e6"/>
  <path id="Path_378" data-name="Path 378" d="M450.9,373.181l-42.984,22.852-.544-19.043c14.03-2.342,27.377-6.42,39.719-13.058l4.5-11.107a7.529,7.529,0,0,1,12.8-1.954h0a7.529,7.529,0,0,1-.663,10.266Z" transform="translate(-258.6 -221.157)" fill="#ffb8b8"/>
  <path id="Path_379" data-name="Path 379" d="M322.988,552.594h0a8.446,8.446,0,0,1,1.072-6.833L333.5,531.27a16.5,16.5,0,0,1,21.407-5.648h0c-3.968,6.755-3.415,12.68,1.37,17.83a85.838,85.838,0,0,0-20.386,13.9,8.446,8.446,0,0,1-12.906-4.757Z" transform="translate(-235.713 -268.63)" fill="#2f2e41"/>
  <path id="Path_380" data-name="Path 380" d="M440.365,513.793h0a16.2,16.2,0,0,1-13.771,7.866l-62.728.475-2.72-15.779,27.749-8.161-23.4-17.955,25.572-29.925L437.518,493.6a16.2,16.2,0,0,1,2.847,20.189Z" transform="translate(-246.106 -248.776)" fill="#2f2e41"/>
  <path id="Path_381" data-name="Path 381" d="M341.088,605.582H326.4c-13.19-90.413-26.616-181.078,13.058-214.918l46.792,7.617L380.262,438l-26.117,29.925Z" transform="translate(-233.122 -232.655)" fill="#2f2e41"/>
  <path id="Path_382" data-name="Path 382" d="M357.935,703.619h0a8.446,8.446,0,0,1-6.833-1.072L335.151,700.4A16.5,16.5,0,0,1,329.5,679h0c6.755,3.968,12.681,3.414,17.83-1.372,3.638,7.346,9.633,6.9,15.358,13.088a8.446,8.446,0,0,1-4.756,12.906Z" transform="translate(-237.055 -310.211)" fill="#2f2e41"/>
  <path id="Path_383" data-name="Path 383" d="M389.1,294l-27.2-6.529c4.518-9.249,4.89-19.539,2.72-30.469l18.5-.544C383.691,270.046,385.444,282.744,389.1,294Z" transform="translate(-246.308 -196.383)" fill="#ffb8b8"/>
  <path id="Path_384" data-name="Path 384" d="M390.553,387.258c-19.8,13.5-33.8.462-44.475-19.647,1.484-12.3-.919-27.03-5.368-43.03a29.29,29.29,0,0,1,17.883-35.32h0l23.4,9.794c19.866,16.193,23.776,33.733,16.323,52.233Z" transform="translate(-240.287 -205.249)" fill="#c69963"/>
  <path id="Path_385" data-name="Path 385" d="M313.239,318.28l-21.764,11.426,38.631,22.852,5.375,13.259a7.032,7.032,0,0,1-4.225,9.29h0a7.032,7.032,0,0,1-9.313-6.235l-.544-9.241-49.1-16.2a11.481,11.481,0,0,1-7.2-7.014h0a11.481,11.481,0,0,1,4.307-13.356l39.482-27.087Z" transform="translate(-219.964 -207.063)" fill="#ffb8b8"/>
  <path id="Path_386" data-name="Path 386" d="M350.264,318.328c-9.077-3.978-17.331.343-27.749,3.809L320.883,293.3c10.345-5.514,20.208-7,29.381-2.72Z" transform="translate(-235.225 -204.935)" fill="#c69963"/>
  <circle id="Ellipse_74" data-name="Ellipse 74" cx="17.369" cy="17.369" r="17.369" transform="translate(108.528 39.618)" fill="#ffb8b8"/>
  <path id="Path_387" data-name="Path 387" d="M390.176,243.452c-17.2,1.684-30.3-1.128-38.676-9.136v-6.449h37.216Z" transform="translate(-243.499 -188.656)" fill="#2f2e41"/>
</svg>
