<svg id="phone-call" xmlns="http://www.w3.org/2000/svg" width="21.493" height="19" viewBox="0 0 21.493 19"><g id="Group_55" data-name="Group 55"><path id="Path_77" data-name="Path 77" d="M19.8,12.51a13.768,13.768,0,0,1-3.855-.542,1.814,1.814,0,0,0-1.678.314l-2.44,1.629A12.95,12.95,0,0,1,5.758,8.55L7.551,6.444a1.393,1.393,0,0,0,.42-1.53A9.716,9.716,0,0,1,7.353,1.5,1.609,1.609,0,0,0,5.656,0H1.7A1.609,1.609,0,0,0,0,1.5C0,11.149,8.881,19,19.8,19a1.609,1.609,0,0,0,1.7-1.5V14.01A1.609,1.609,0,0,0,19.8,12.51Z" fill="#b28451"/></g></svg>