<svg xmlns="http://www.w3.org/2000/svg" width="653" height="427" viewBox="0 0 653 427">
  <g id="undraw_Profile_data_re_v81r" transform="translate(-0.011 0)">
    <path id="Path_237" data-name="Path 237" d="M537.317,316.5q-1.121,5.9-2.689,11.671c-.113.447-.24.887-.367,1.335H519.72a4.676,4.676,0,0,0-4.671,4.671v41.452c-.44.821-.888,1.635-1.335,2.449-2.309,4.2-4.711,8.361-7.167,12.465a473.876,473.876,0,0,1-162.613,162.52l3.951-8.915-4.351-.3c-31.53-2.155-63.166-4.544-93.955-11.631-32.21-7.414-63.72-20.272-88.964-41.593s-43.761-51.782-46.33-84.733a96.68,96.68,0,0,1,3.383-33.638c5.919-21.033,18.851-39.958,37.509-51.155,29.308-17.583,67.537-14,98.433.627s56.033,38.823,80.583,62.606a311.241,311.241,0,0,0-100.7-105.112c-13.72-8.782-28.28-16.6-39.944-27.98s-20.259-27.312-18.2-43.468c2.342-18.324,17.35-32.23,32.384-42.954,6.006-4.284,12.2-8.348,18.6-12.085,18.037-10.57,37.549-18.544,58.155-21.5,27.913-4.01,58.062,2.075,79.462,20.439,24.109,20.693,34,54.064,33.058,85.988,14.854-21.594,37.762-38.123,63.633-38.823,26.859-.721,52.39,16.249,65.842,39.511S542.342,290.107,537.317,316.5Z" transform="translate(-113.998 -130.052)" fill="#e6e6e6"/>
    <path id="Path_238" data-name="Path 238" d="M493.162,445.277c15.731-1.385,30.263-3,45.507-7.318,14.776-4.181,28.995-11.181,39.514-22.609,11.314-12.293,17.421-28.257,21.73-44.149,2.4-8.861,4.377-17.845,6.239-26.832q3.031-14.627,5.387-29.383,4.689-29.373,6.7-59.092.242-3.607.444-7.217c.083-1.485-2.226-1.48-2.309,0q-1.648,29.294-5.929,58.36c-2.816,19.038-6.42,37.993-10.992,56.69-3.873,15.839-8.888,31.926-18.822,45.111-9.315,12.364-22.769,20.444-37.3,25.275-14.782,4.916-30.369,6.879-45.816,8.338-1.895.179-2.456.35-4.352.517-1.469.129-1.482,2.439,0,2.309Z" transform="translate(-237.652 -169.149)" fill="#fff"/>
    <path id="Path_239" data-name="Path 239" d="M120.935,494.409a250.242,250.242,0,0,1,58.522,10.313,252.912,252.912,0,0,1,54.5,23.723A246.744,246.744,0,0,1,279.856,563a252.818,252.818,0,0,1,35.852,42.748,250.307,250.307,0,0,1,25.655,49.735q1.219,3.21,2.349,6.453c.487,1.394,2.718.794,2.226-.614a252.67,252.67,0,0,0-24.509-50.973,255.955,255.955,0,0,0-35.167-44.3,249.54,249.54,0,0,0-44.9-35.829A254.851,254.851,0,0,0,128.211,492.6q-3.634-.3-7.276-.5c-1.485-.081-1.48,2.228,0,2.309Z" transform="translate(-115.932 -250.506)" fill="#fff"/>
    <path id="Path_240" data-name="Path 240" d="M282.866,166.955a135.994,135.994,0,0,1,35.7,17.446,167.655,167.655,0,0,1,30.477,27.066,224.376,224.376,0,0,1,25.237,34.78,296.723,296.723,0,0,1,20.066,40.8,369.138,369.138,0,0,1,14.613,44.372,414.713,414.713,0,0,1,9.344,46.36,413.877,413.877,0,0,1,4.022,46.624A369.341,369.341,0,0,1,421,469.123a284.879,284.879,0,0,1-6.715,41.176,194.558,194.558,0,0,1-12.115,35.6q-1.8,3.9-3.818,7.688c-.7,1.311,1.294,2.479,1.994,1.165a177.974,177.974,0,0,0,13.635-34.319,265.777,265.777,0,0,0,8.131-40.371,351.254,351.254,0,0,0,2.687-44.635,409.535,409.535,0,0,0-2.794-46.9,422.48,422.48,0,0,0-8.134-46.865,382.429,382.429,0,0,0-13.6-45.643,317.58,317.58,0,0,0-18.912-42,243.493,243.493,0,0,0-24.25-36.6,180.558,180.558,0,0,0-29.625-29.358,143.259,143.259,0,0,0-34.743-20.041q-4.569-1.818-9.263-3.289c-1.421-.447-2.029,1.781-.614,2.226Z" transform="translate(-168.935 -141.569)" fill="#fff"/>
    <ellipse id="Ellipse_55" data-name="Ellipse 55" cx="165.156" cy="6.673" rx="165.156" ry="6.673" transform="translate(84.753 413.654)" fill="#e6e6e6"/>
    <path id="Path_241" data-name="Path 241" d="M685.622,444.043a7.029,7.029,0,0,0-.16,1.094L656.8,461.674l-6.968-4.011-7.428,9.724,14.905,10.624,32.7-25.8a7,7,0,1,0-4.388-8.169Z" transform="translate(-287.177 -232.72)" fill="#ffb8b8"/>
    <path id="Path_242" data-name="Path 242" d="M607.478,453.9l22.571,16.087,10.095-12.657L618.2,439.724a8.891,8.891,0,0,0-12.8,1.774h0a8.891,8.891,0,0,0,2.08,12.4Z" transform="translate(-274.59 -232.43)" fill="#b28451"/>
    <path id="Path_243" data-name="Path 243" d="M425.519,591.738l7.914,2.073L445.2,564.274l-11.68-3.061Z" transform="translate(-139.584 -186.718)" fill="#ffb8b8"/>
    <path id="Path_244" data-name="Path 244" d="M0,0H25.711V9.934H9.934A9.934,9.934,0,0,1,0,0H0Z" transform="matrix(-0.967, -0.253, 0.253, -0.967, 307.185, 418.443)" fill="#2f2e41"/>
    <path id="Path_245" data-name="Path 245" d="M528.176,598.855l8.054-1.439-1.716-31.748-11.886,2.123Z" transform="translate(-171.463 -188.2)" fill="#ffb8b8"/>
    <path id="Path_246" data-name="Path 246" d="M0,0H25.711V9.934H9.934A9.934,9.934,0,0,1,0,0H0Z" transform="translate(381.707 413.921) rotate(169.872)" fill="#2f2e41"/>
    <path id="Path_247" data-name="Path 247" d="M614.169,394.559c1.984.483,3.6,2.505,4.569,4.848a33.819,33.819,0,0,1,1.8,7.617c.762,4.842,1.493,10.085-.082,14.57-1.847,5.256-6.768,8.01-11.036,6.716s-7.663-6.15-8.823-11.74a28.433,28.433,0,0,1,1.951-16.739c1.213-2.761,2.884-5.308,5.105-6.553a5.038,5.038,0,0,1,6.719,1.4" transform="translate(-273.455 -217.386)" fill="#2f2e41"/>
    <path id="Path_248" data-name="Path 248" d="M604.565,526.948,619.9,664.273l-12.663,4.809L583.879,577l-32.516,84.2-13.861.77s19.018-131.012,33.112-133.989Z" transform="translate(-252.702 -262.101)" fill="#2f2e41"/>
    <circle id="Ellipse_56" data-name="Ellipse 56" cx="16.389" cy="16.389" r="16.389" transform="translate(322.688 161.919)" fill="#ffb8b8"/>
    <path id="Path_249" data-name="Path 249" d="M614.078,430.976l-17.711-2.31s-11.551,13.861-10.781,37.733-1.925,31.187-1.925,31.187l36.928.667C615.252,490.913,637.581,448.755,614.078,430.976Z" transform="translate(-267.985 -229.402)" fill="#b28451"/>
    <path id="Path_250" data-name="Path 250" d="M623.785,519.634a7.025,7.025,0,0,0-1.1.1l-22.658-24.12,2.31-7.7L591.169,482.9l-6.931,16.941,32.6,25.931a7,7,0,1,0,6.948-6.141Z" transform="translate(-268.155 -247.447)" fill="#ffb8b8"/>
    <path id="Path_251" data-name="Path 251" d="M601.08,443.435l-10.494,25.653,14.631,6.93,12.117-25.387a8.891,8.891,0,0,0-4.658-12.059h0a8.891,8.891,0,0,0-11.6,4.863Z" transform="translate(-270.306 -232.477)" fill="#b28451"/>
    <path id="Path_252" data-name="Path 252" d="M599.211,402.095c2.568-1.481,2.842-5.055,2.493-8s-.932-6.226.8-8.633c2.065-2.873,6.215-2.93,9.752-3.024s7.845-1.13,8.761-4.547c.606-2.258-.69-4.682-2.549-6.1a17.89,17.89,0,0,0-6.446-2.64c-5.058-1.332-10.28-2.676-15.459-1.944a19.709,19.709,0,0,0-16.791,22.007c.838,6.574,2.054,9.444,1.256,12.342-1.486,5.4-7.895,8.867-8.022,14.465-.1,4.379,3.768,7.757,7.542,9.98a25.315,25.315,0,0,0,9.673,3.673,12.333,12.333,0,0,0,9.733-2.716c3.314-3.016,4.134-8.053,3.184-12.432s-3.388-8.268-5.8-12.044" transform="translate(-264.465 -208.886)" fill="#2f2e41"/>
    <path id="Path_253" data-name="Path 253" d="M955.9,426.948H719.006A6.015,6.015,0,0,0,713,432.954V585.1a6.015,6.015,0,0,0,6.006,6.006H955.9A6.015,6.015,0,0,0,961.9,585.1V432.954A6.015,6.015,0,0,0,955.9,426.948ZM960.567,585.1a4.676,4.676,0,0,1-4.671,4.671H719.006a4.676,4.676,0,0,1-4.671-4.671V432.954a4.676,4.676,0,0,1,4.671-4.671H955.9a4.676,4.676,0,0,1,4.671,4.671Z" transform="translate(-308.89 -228.831)" fill="#3f3d56"/>
    <path id="Path_254" data-name="Path 254" d="M776.318,516.156H738.949a5.679,5.679,0,0,1-5.672-5.672V473.115a5.679,5.679,0,0,1,5.672-5.672h37.369a5.679,5.679,0,0,1,5.672,5.672v37.369A5.679,5.679,0,0,1,776.318,516.156Z" transform="translate(-317.004 -242.303)" fill="#c69963"/>
    <path id="Path_255" data-name="Path 255" d="M950.549,595.628H738.35a4.337,4.337,0,0,1,0-8.675h212.2a4.337,4.337,0,0,1,0,8.675Z" transform="translate(-315.881 -282.065)" fill="#ccc"/>
    <path id="Path_256" data-name="Path 256" d="M950.768,564.128h-212.2a4.337,4.337,0,0,1,0-8.675h212.2a4.337,4.337,0,1,1,0,8.675Z" transform="translate(-315.953 -271.585)" fill="#ccc"/>
    <path id="Path_257" data-name="Path 257" d="M883.927,521.118H852.564a4.337,4.337,0,1,1,0-8.675h31.363a4.337,4.337,0,0,1,0,8.675Z" transform="translate(-354.737 -257.275)" fill="#ccc"/>
    <path id="Path_258" data-name="Path 258" d="M988.7,489.128H852.567a4.337,4.337,0,0,1,0-8.675H988.7a4.337,4.337,0,1,1,0,8.675Z" transform="translate(-353.882 -246.632)" fill="#ccc"/>
    <path id="Path_259" data-name="Path 259" d="M840.589,627.628H738.35a4.337,4.337,0,0,1,0-8.675H840.589a4.337,4.337,0,0,1,0,8.675Z" transform="translate(-316.894 -292.711)" fill="#ccc"/>
  </g>
</svg>
