<svg xmlns="http://www.w3.org/2000/svg" width="475.792" height="360.099" viewBox="0 0 475.792 360.099">
  <g id="undraw_apartment_rent_o0ut" transform="translate(0.002)">
    <rect id="Rectangle_269" data-name="Rectangle 269" width="40.641" height="25.991" transform="translate(296.493 139.408)" fill="#b28451"/>
    <rect id="Rectangle_270" data-name="Rectangle 270" width="40.641" height="25.991" transform="translate(233.168 180.049)" fill="#b28451"/>
    <path id="Path_415" data-name="Path 415" d="M584.614,216.915V161.624H553.9V125.708H533.1v35.915H502.386v55.291H485.374V92.629h-34.5V80.814H405.037V69H359.67V80.814h-43V92.629H279.333V216.442H259.485V161.151H228.768V125.236H207.975v35.915H177.258v55.291H157.41V412.559h45.367V343.091h31.19v69.468H355.89v-80.81h52.928v80.81h73.721v.473h45.367V343.563h31.19v69.468h45.367V216.915Zm-410.9,23.629h17.958V254.72H173.714Zm.236,39.7h17.958v14.177H173.95Zm18.194,53.873H174.186V319.935h17.958Zm47.021-128.067H197.579v-8.506h41.586Zm0-12.287H197.579v-8.506h41.586Zm0-12.287H197.579v-8.506h41.586Zm5.907,59.071H263.03V254.72H245.072Zm.236,39.7h17.958v14.177H245.308ZM263.5,334.112H245.544V319.935H263.5Zm73.485-23.629h-33.08v-14.65h33.08Zm0-42.059h-33.08v-14.65h33.08Zm0-42.059h-33.08v-14.65h33.08Zm0-42.059h-33.08v-14.65h33.08Zm0-42.059h-33.08V127.6h33.08Zm61.907,168.235h-33.08v-14.65h33.08Zm0-42.059h-33.08v-14.65h33.08Zm0-42.059h-33.08v-14.65h33.08Zm0-42.059h-33.08v-14.65h33.08Zm0-42.059h-33.08V127.6h33.08ZM460.8,310.483H427.72v-14.65H460.8Zm0-42.059H427.72v-14.65H460.8Zm0-42.059H427.72v-14.65H460.8Zm0-42.059H427.72v-14.65H460.8Zm0-42.059H427.72V127.6H460.8Zm38.042,98.767H516.8v14.177H498.842Zm.236,39.7h17.958v14.177H499.078Zm18.194,53.873H499.315V320.407h17.958Zm47.021-128.067H522.707v-8.506h41.586Zm0-12.287H522.707v-8.506h41.586Zm0-12.287H522.707v-8.506h41.586Zm5.907,59.071h17.958v14.177H570.2Zm.236,39.7h17.958v14.177H570.437Zm18.194,53.873H570.673V320.407H588.63Z" transform="translate(-128.671 -69)" fill="#f2f2f2"/>
    <path id="Path_416" data-name="Path 416" d="M215.859,689.629c-.132,1.87-.339,3.96-.659,6.158l5.778-6.407.032.107a16.835,16.835,0,0,0-1.69-4.41l.037.1Z" transform="translate(-159.151 -393.937)" fill="#b28451"/>
    <path id="Path_417" data-name="Path 417" d="M216.642,685.481l3.388-4.311A8.87,8.87,0,0,0,217,677.94c-.062-.037-.124-.072-.187-.106C216.831,678.344,216.92,681.333,216.642,685.481Z" transform="translate(-159.912 -390.117)" fill="#b28451"/>
    <path id="Path_418" data-name="Path 418" d="M209.659,723.248q-.223.68-.461,1.335l8.508-4.989.012.125q.267-1.164.444-2.327l-8.5,5.912Z" transform="translate(-155.986 -410.981)" fill="#b28451"/>
    <path id="Path_419" data-name="Path 419" d="M212.678,707.066l7.663-6.32.022.118a26.467,26.467,0,0,0-.657-6.213l-5.888,6.53Q213.354,704.268,212.678,707.066Z" transform="translate(-157.821 -398.987)" fill="#b28451"/>
    <path id="Path_420" data-name="Path 420" d="M202.179,696.658l-9.169-10.231.049-.116a22.1,22.1,0,0,0-2.2,3.873l10.464,11.14C201.68,699.7,201.96,698.125,202.179,696.658Z" transform="translate(-146.313 -394.589)" fill="#b28451"/>
    <path id="Path_421" data-name="Path 421" d="M190.649,694.865h0c.017-.038.031-.079.048-.117Z" transform="translate(-146.202 -399.038)" fill="#b28451"/>
    <path id="Path_422" data-name="Path 422" d="M189.516,697.651l-.047.117c.015-.04.032-.077.047-.117Z" transform="translate(-145.58 -400.569)" fill="#b28451"/>
    <path id="Path_423" data-name="Path 423" d="M200.581,706.177,190.08,695q-.266.61-.51,1.255L200.3,707.36Q200.449,706.765,200.581,706.177Z" transform="translate(-145.633 -399.169)" fill="#b28451"/>
    <path id="Path_424" data-name="Path 424" d="M218.795,712.336a31.606,31.606,0,0,0,.341-4.247l-7.767,6.405q-.462,1.863-1.016,3.582l8.425-5.863Z" transform="translate(-156.595 -406.075)" fill="#b28451"/>
    <path id="Path_425" data-name="Path 425" d="M186.5,714.334l8.5,11.091a38.019,38.019,0,0,0,1.847-4.164l-10.373-10.895a30.572,30.572,0,0,0-.034,4.093Z" transform="translate(-143.954 -407.275)" fill="#b28451"/>
    <path id="Path_426" data-name="Path 426" d="M210.277,677l.076-.034a6,6,0,0,0-5.809.121l5.568,7.562C210.411,680.163,210.279,677.047,210.277,677Z" transform="translate(-153.531 -389.295)" fill="#b28451"/>
    <path id="Path_427" data-name="Path 427" d="M206.752,728.093a37.768,37.768,0,0,1-1.67,3.755l8.551-4.424.009.123a14.973,14.973,0,0,0,1.5-3.469q.2-.717.372-1.438l-8.61,5.048C206.852,727.824,206.8,727.959,206.752,728.093Z" transform="translate(-153.815 -413.749)" fill="#b28451"/>
    <path id="Path_428" data-name="Path 428" d="M205.4,685.951l-5.7-7.735.053-.11a12.746,12.746,0,0,0-4.1,3.785l9.095,10.148C205.068,689.865,205.272,687.8,205.4,685.951Z" transform="translate(-148.845 -390.26)" fill="#b28451"/>
    <path id="Path_429" data-name="Path 429" d="M197.065,714.569a51.308,51.308,0,0,0,1.619-5.28l-10.76-11.137q-.384,1.043-.706,2.171a18.383,18.383,0,0,0-.593,3.293l10.432,10.957Z" transform="translate(-144.08 -400.834)" fill="#b28451"/>
    <path id="Path_430" data-name="Path 430" d="M227.154,756.865c-1.294,1.356-2.787,2.834-4.435,4.322l8.537-1.25-.044.1a16.835,16.835,0,0,0,1.511-4.474l-.036.1Z" transform="translate(-163.117 -431.115)" fill="#b28451"/>
    <path id="Path_431" data-name="Path 431" d="M237.669,745.781c-.024-.068-.05-.135-.076-.2-.31.4-2.149,2.763-5.009,5.781l5.359-1.16A8.869,8.869,0,0,0,237.669,745.781Z" transform="translate(-168.32 -425.848)" fill="#b28451"/>
    <path id="Path_432" data-name="Path 432" d="M203.443,781.234q-.606.381-1.207.734l9.735,1.584-.071.1q.948-.726,1.826-1.509l-10.314-.865Z" transform="translate(-152.314 -444.653)" fill="#b28451"/>
    <path id="Path_433" data-name="Path 433" d="M212.37,770.338l9.933.02-.059.1a26.471,26.471,0,0,0,3.457-5.2l-8.7,1.274Q214.675,768.614,212.37,770.338Z" transform="translate(-157.659 -436.228)" fill="#b28451"/>
    <path id="Path_434" data-name="Path 434" d="M205.283,778.562l10.228.858-.065.1a31.605,31.605,0,0,0,2.971-3.053l-10.067-.02Q206.807,777.591,205.283,778.562Z" transform="translate(-153.921 -442.13)" fill="#b28451"/>
    <path id="Path_435" data-name="Path 435" d="M166.844,752.97c.072-.073.149-.153.225-.231a26.291,26.291,0,0,0,6.07-1.734l.278-7.372q.124-.281.24-.567l-.3,7.845a38,38,0,0,0,4.079-2.029l-.95-13.7.223-.117.949,13.686h.009a51.269,51.269,0,0,0,4.614-3.034l-1.034-13.485.22-.161,1.034,13.484q.492-.365.969-.733l-.853-13.651.219-.181.854,13.661c1.313-1.024,2.533-2.057,3.636-3.048l-.537-13.728.112-.058c-.381.1-.769.217-1.159.346a19.372,19.372,0,0,0,1.975-2.693l-8.633,4.466a29.048,29.048,0,0,1-2.012,3.276c-.154.146-.309.291-.461.443l.011.164c-.07.093-.141.186-.212.277l-.015-.221c-.109.112-.215.23-.323.345a27.281,27.281,0,0,0,2.865-4.38L170.5,718.83c.058.984.154,1.975.277,2.957a16.65,16.65,0,0,0-2.829-3.456l.066.085-1.95,5.314c.452,1.819.9,3.871,1.277,6.06l3.466-7.771c.016.121.033.242.049.363l-3.457,7.752q.513,3.079.735,5.949l4.15-6.518.071.28-4.194,6.588q.137,1.915.141,3.721l5.073-6.693.08.258-5.126,6.763-.025-.052q0,.716-.026,1.413L174,735.4l.085.248-5.821,6.554c-.006.144-.011.289-.019.431a37.772,37.772,0,0,1-.427,4.087l.552-.559q-.157.326-.306.642l-.314.318c-.036.207-.077.409-.117.612q-.174.382-.335.745c.1-.465.2-.932.283-1.4l-11.428-7.862a70.508,70.508,0,0,0,8.956,15.345c.292-.545.557-1.106.8-1.678l.212-.021c-.029.07-.06.14-.089.209l-.107.013.091.025c-.172.4-.349.793-.54,1.173.249-.224.629-.579,1.084-1.028,2.687.686,9.927,2.153,16.126-.014l-9.5-2.066a26.562,26.562,0,0,1-6.347,1.8Zm6.674-12.018.228-.231-.013.346-.228.231Z" transform="translate(-128.01 -411.477)" fill="#b28451"/>
    <path id="Path_436" data-name="Path 436" d="M237.355,741.348l.08.022a6,6,0,0,0-4.551-3.612l-.535,9.375C235.443,743.868,237.328,741.383,237.355,741.348Z" transform="translate(-168.196 -421.723)" fill="#b28451"/>
    <path id="Path_437" data-name="Path 437" d="M196.677,783.385A37.779,37.779,0,0,1,193,785.212l9.408,2.046-.072.1a14.978,14.978,0,0,0,3.367-1.715q.614-.422,1.2-.87l-9.851-1.6C196.926,783.241,196.8,783.314,196.677,783.385Z" transform="translate(-147.44 -445.674)" fill="#b28451"/>
    <path id="Path_438" data-name="Path 438" d="M221.995,751.426c1.628-1.472,3.1-2.934,4.382-4.274l.548-9.59.111-.051a12.745,12.745,0,0,0-5.573.3Z" transform="translate(-162.454 -421.499)" fill="#b28451"/>
    <path id="Path_439" data-name="Path 439" d="M176.4,715.759a8.869,8.869,0,0,0-3.88-2.134c-.07-.016-.141-.03-.211-.043.175.479,1.183,3.294,2.2,7.325Z" transform="translate(-136.527 -408.971)" fill="#b28451"/>
    <path id="Path_440" data-name="Path 440" d="M165.36,735.307l-11.883-6.9.011-.125a22.1,22.1,0,0,0-.9,4.363l13.395,7.361C165.826,738.353,165.606,736.769,165.36,735.307Z" transform="translate(-126.13 -416.727)" fill="#b28451"/>
    <path id="Path_441" data-name="Path 441" d="M152.545,737.907h0c0-.041,0-.085.009-.126Z" transform="translate(-126.105 -421.735)" fill="#b28451"/>
    <path id="Path_442" data-name="Path 442" d="M152.329,740.906l-.009.126c0-.043.007-.083.009-.126Z" transform="translate(-125.987 -423.383)" fill="#b28451"/>
    <path id="Path_443" data-name="Path 443" d="M165.881,745.435l-13.444-7.388q-.065.662-.1,1.351l13.642,7.247Q165.937,746.035,165.881,745.435Z" transform="translate(-125.997 -421.875)" fill="#b28451"/>
    <path id="Path_444" data-name="Path 444" d="M166.65,761.08l-13.232-7.155a30.579,30.579,0,0,0,1.233,3.9l.017-.137,11.513,7.92a38.014,38.014,0,0,0,.47-4.531Z" transform="translate(-126.565 -430.25)" fill="#b28451"/>
    <path id="Path_445" data-name="Path 445" d="M165.931,713.494l.062-.056a6,6,0,0,0-5.487,1.91l7.632,5.471C167.036,716.459,165.947,713.536,165.931,713.494Z" transform="translate(-130.304 -408.846)" fill="#b28451"/>
    <path id="Path_446" data-name="Path 446" d="M165.086,723.47l-7.807-5.6.017-.121a12.744,12.744,0,0,0-2.731,4.867l11.786,6.839C165.978,727.3,165.533,725.268,165.086,723.47Z" transform="translate(-127.17 -411.171)" fill="#b28451"/>
    <path id="Path_447" data-name="Path 447" d="M166.052,754.232a51.3,51.3,0,0,0-.092-5.521l-13.676-7.265q-.043,1.111,0,2.283a18.385,18.385,0,0,0,.454,3.316l13.308,7.2Z" transform="translate(-125.956 -423.667)" fill="#b28451"/>
    <path id="Path_448" data-name="Path 448" d="M1071.854,686.629c-.132,1.869-.339,3.96-.659,6.158l5.777-6.407.032.107a16.838,16.838,0,0,0-1.69-4.41l.037.1Z" transform="translate(-610.629 -392.355)" fill="#b28451"/>
    <path id="Path_449" data-name="Path 449" d="M1072.64,682.482l3.388-4.311a8.868,8.868,0,0,0-3.03-3.229c-.062-.037-.125-.072-.187-.106C1072.829,675.344,1072.919,678.333,1072.64,682.482Z" transform="translate(-611.391 -388.535)" fill="#b28451"/>
    <path id="Path_450" data-name="Path 450" d="M1065.655,720.248q-.223.68-.461,1.335l8.508-4.989.012.125q.267-1.164.444-2.327l-8.5,5.912Z" transform="translate(-607.463 -409.399)" fill="#b28451"/>
    <path id="Path_451" data-name="Path 451" d="M1068.68,704.066l7.663-6.32.022.118a26.479,26.479,0,0,0-.657-6.213l-5.888,6.53Q1069.356,701.268,1068.68,704.066Z" transform="translate(-609.302 -397.405)" fill="#b28451"/>
    <path id="Path_452" data-name="Path 452" d="M1058.176,693.658l-9.169-10.231.049-.116a22.107,22.107,0,0,0-2.2,3.873l10.464,11.14C1057.679,696.7,1057.958,695.125,1058.176,693.658Z" transform="translate(-597.791 -393.006)" fill="#b28451"/>
    <path id="Path_453" data-name="Path 453" d="M1046.65,691.865h0c.017-.038.031-.079.048-.117Z" transform="translate(-597.683 -397.456)" fill="#b28451"/>
    <path id="Path_454" data-name="Path 454" d="M1056.579,703.177,1046.078,692q-.266.61-.51,1.255L1056.3,704.36Q1056.447,703.765,1056.579,703.177Z" transform="translate(-597.112 -397.586)" fill="#b28451"/>
    <path id="Path_455" data-name="Path 455" d="M1045.517,694.651l-.047.117c.015-.04.032-.077.047-.117Z" transform="translate(-597.06 -398.987)" fill="#b28451"/>
    <path id="Path_456" data-name="Path 456" d="M1074.8,709.336a31.567,31.567,0,0,0,.341-4.247l-7.767,6.405q-.462,1.863-1.016,3.582l8.425-5.863Z" transform="translate(-608.077 -404.492)" fill="#b28451"/>
    <path id="Path_457" data-name="Path 457" d="M1042.5,711.334l8.5,11.091a38.034,38.034,0,0,0,1.847-4.164l-10.373-10.895a30.572,30.572,0,0,0-.034,4.093Z" transform="translate(-595.433 -405.693)" fill="#b28451"/>
    <path id="Path_458" data-name="Path 458" d="M1066.272,674l.076-.034a6,6,0,0,0-5.809.121l5.567,7.562A74.91,74.91,0,0,0,1066.272,674Z" transform="translate(-605.008 -387.712)" fill="#b28451"/>
    <path id="Path_459" data-name="Path 459" d="M1062.747,725.093a37.783,37.783,0,0,1-1.67,3.755l8.551-4.424.009.123a14.976,14.976,0,0,0,1.5-3.469q.2-.717.372-1.438l-8.61,5.048C1062.851,724.824,1062.8,724.959,1062.747,725.093Z" transform="translate(-605.292 -412.167)" fill="#b28451"/>
    <path id="Path_460" data-name="Path 460" d="M1061.4,682.951l-5.7-7.735.053-.11a12.746,12.746,0,0,0-4.1,3.785l9.095,10.148C1061.065,686.865,1061.269,684.8,1061.4,682.951Z" transform="translate(-600.322 -388.678)" fill="#b28451"/>
    <path id="Path_461" data-name="Path 461" d="M1053.068,711.569a51.325,51.325,0,0,0,1.619-5.28l-10.76-11.137q-.384,1.043-.706,2.171a18.367,18.367,0,0,0-.593,3.293l10.432,10.957Z" transform="translate(-595.561 -399.252)" fill="#b28451"/>
    <path id="Path_462" data-name="Path 462" d="M1083.15,753.865c-1.294,1.355-2.787,2.834-4.435,4.322l8.537-1.25-.044.1a16.841,16.841,0,0,0,1.511-4.474l-.036.1Z" transform="translate(-614.595 -429.533)" fill="#b28451"/>
    <path id="Path_463" data-name="Path 463" d="M1093.665,742.781c-.024-.068-.05-.135-.076-.2-.311.4-2.149,2.763-5.009,5.781l5.359-1.16a8.869,8.869,0,0,0-.274-4.42Z" transform="translate(-619.798 -424.266)" fill="#b28451"/>
    <path id="Path_464" data-name="Path 464" d="M1059.443,778.234q-.606.381-1.207.734l9.735,1.585-.071.1q.947-.726,1.826-1.509l-10.314-.865Z" transform="translate(-603.794 -443.071)" fill="#b28451"/>
    <path id="Path_465" data-name="Path 465" d="M1068.37,767.338l9.933.02-.059.1a26.463,26.463,0,0,0,3.457-5.2l-8.7,1.274Q1070.676,765.614,1068.37,767.338Z" transform="translate(-609.138 -434.645)" fill="#b28451"/>
    <path id="Path_466" data-name="Path 466" d="M1061.28,775.562l10.228.858-.065.1a31.624,31.624,0,0,0,2.971-3.053l-10.067-.021Q1062.806,774.591,1061.28,775.562Z" transform="translate(-605.399 -440.548)" fill="#b28451"/>
    <path id="Path_467" data-name="Path 467" d="M1022.841,749.97c.072-.073.149-.153.225-.231a26.292,26.292,0,0,0,6.07-1.734l.278-7.372q.124-.281.24-.567l-.3,7.845a38.01,38.01,0,0,0,4.079-2.029l-.95-13.7.223-.117.949,13.686.009,0a51.3,51.3,0,0,0,4.614-3.034l-1.034-13.485.22-.161,1.034,13.484q.492-.365.969-.733l-.853-13.651.219-.181.854,13.661c1.313-1.024,2.533-2.057,3.636-3.048l-.537-13.728.112-.058c-.381.1-.769.217-1.159.346a19.377,19.377,0,0,0,1.975-2.693l-8.633,4.466a29.018,29.018,0,0,1-2.012,3.276c-.154.146-.308.291-.461.443l.011.164c-.071.093-.141.186-.212.277l-.015-.221c-.109.112-.215.23-.323.345a27.275,27.275,0,0,0,2.865-4.38l-8.439-11.01c.057.984.154,1.975.277,2.957a16.654,16.654,0,0,0-2.829-3.456l.066.085-1.95,5.314c.452,1.819.9,3.871,1.276,6.06l3.466-7.771c.016.121.033.242.049.363l-3.457,7.752q.513,3.079.735,5.949l4.15-6.518c.024.094.047.187.071.28l-4.194,6.588q.137,1.915.141,3.721l5.073-6.693.08.258-5.126,6.763-.025-.052q0,.716-.026,1.412L1030,732.4l.085.248-5.821,6.554c-.006.144-.011.289-.019.431a37.779,37.779,0,0,1-.427,4.087l.552-.559q-.157.325-.306.642l-.314.318c-.036.207-.077.409-.117.612q-.174.382-.335.745c.1-.465.2-.932.283-1.4l-11.428-7.862a70.5,70.5,0,0,0,8.956,15.345c.292-.545.557-1.106.8-1.678l.212-.021c-.029.07-.06.14-.089.209l-.107.013.091.025c-.172.4-.349.793-.54,1.173.249-.224.629-.579,1.084-1.028,2.687.686,9.927,2.153,16.126-.014l-9.5-2.066a26.56,26.56,0,0,1-6.347,1.8Zm6.674-12.018.228-.231-.013.346-.228.231Z" transform="translate(-579.488 -409.894)" fill="#b28451"/>
    <path id="Path_468" data-name="Path 468" d="M1093.353,738.347l.08.022a6,6,0,0,0-4.551-3.612l-.535,9.375A74.982,74.982,0,0,0,1093.353,738.347Z" transform="translate(-619.675 -420.14)" fill="#b28451"/>
    <path id="Path_469" data-name="Path 469" d="M1052.672,780.385a37.733,37.733,0,0,1-3.681,1.827l9.408,2.046-.072.1a14.973,14.973,0,0,0,3.367-1.715q.614-.422,1.2-.87l-9.851-1.6C1052.922,780.242,1052.8,780.314,1052.672,780.385Z" transform="translate(-598.917 -444.092)" fill="#b28451"/>
    <path id="Path_470" data-name="Path 470" d="M1078,748.426c1.628-1.472,3.1-2.934,4.382-4.274l.548-9.59.111-.051a12.746,12.746,0,0,0-5.573.3Z" transform="translate(-613.935 -419.917)" fill="#b28451"/>
    <path id="Path_471" data-name="Path 471" d="M1032.395,712.759a8.869,8.869,0,0,0-3.88-2.134c-.07-.016-.141-.03-.211-.043.175.479,1.183,3.294,2.2,7.325Z" transform="translate(-588.006 -407.389)" fill="#b28451"/>
    <path id="Path_472" data-name="Path 472" d="M1021.361,732.307l-11.883-6.9.011-.125a22.1,22.1,0,0,0-.9,4.363l13.395,7.361C1021.829,735.353,1021.607,733.769,1021.361,732.307Z" transform="translate(-577.611 -415.145)" fill="#b28451"/>
    <path id="Path_473" data-name="Path 473" d="M1008.33,737.906l-.009.126c0-.043.007-.083.009-.126Z" transform="translate(-577.467 -421.801)" fill="#b28451"/>
    <path id="Path_474" data-name="Path 474" d="M1008.54,734.907h0c0-.041,0-.085.009-.126Z" transform="translate(-577.582 -420.153)" fill="#b28451"/>
    <path id="Path_475" data-name="Path 475" d="M1021.877,742.435l-13.444-7.388q-.065.662-.1,1.351l13.642,7.247Q1021.934,743.035,1021.877,742.435Z" transform="translate(-577.475 -420.293)" fill="#b28451"/>
    <path id="Path_476" data-name="Path 476" d="M1022.652,758.08l-13.232-7.155a30.574,30.574,0,0,0,1.233,3.9l.017-.137,11.513,7.92a38.033,38.033,0,0,0,.47-4.531Z" transform="translate(-578.046 -428.668)" fill="#b28451"/>
    <path id="Path_477" data-name="Path 477" d="M1021.935,710.494l.062-.056a6,6,0,0,0-5.487,1.91l7.632,5.471C1023.036,713.459,1021.949,710.536,1021.935,710.494Z" transform="translate(-581.786 -407.263)" fill="#b28451"/>
    <path id="Path_478" data-name="Path 478" d="M1021.087,720.47l-7.807-5.6.017-.121a12.744,12.744,0,0,0-2.731,4.867l11.786,6.84C1021.98,724.3,1021.536,722.268,1021.087,720.47Z" transform="translate(-578.65 -409.589)" fill="#b28451"/>
    <path id="Path_479" data-name="Path 479" d="M1022.05,751.232a51.29,51.29,0,0,0-.092-5.521l-13.676-7.265q-.043,1.111,0,2.283a18.383,18.383,0,0,0,.454,3.315l13.308,7.2Z" transform="translate(-577.435 -422.085)" fill="#b28451"/>
    <path id="Path_480" data-name="Path 480" d="M60.812,727H507.863v6.4A10.144,10.144,0,0,1,497.72,743.54H70.955A10.144,10.144,0,0,1,60.812,733.4Z" transform="translate(-32.075 -383.441)" fill="#2f2e41"/>
    <rect id="Rectangle_271" data-name="Rectangle 271" width="447.052" height="8.979" transform="translate(28.737 338.36)" fill="#3f3d56"/>
    <path id="Path_481" data-name="Path 481" d="M889.04,122.373l5.134,3.256-3.117-5.668a5.076,5.076,0,0,1,3.1-1.108h.083a5.952,5.952,0,0,0,1.065-.079l1.74,1.1-.746-1.356a6.193,6.193,0,0,0,3.044-2.31l3.114,1.975-1.967-3.577a9.114,9.114,0,0,1,6.977-3.527c3.239,0,6.123,1.926,7.986,4.927a5.969,5.969,0,0,0,5.279,2.846q.087,0,.174,0c3.575,0,6.474,4.054,6.474,9.054s-2.9,9.054-6.474,9.054a4.858,4.858,0,0,1-2.255-.565,9.342,9.342,0,0,0-7.835-.153,8.168,8.168,0,0,1-6.661.015,9.348,9.348,0,0,0-7.766.15,4.854,4.854,0,0,1-2.231.552c-3.575,0-6.474-4.054-6.474-9.054a11.5,11.5,0,0,1,1.352-5.534Z" transform="translate(-513.841 -91.196)" fill="#f2f2f2"/>
    <path id="Path_482" data-name="Path 482" d="M336.831,183.229,340.1,185.3l-1.983-3.605a3.229,3.229,0,0,1,1.975-.7h.053a3.784,3.784,0,0,0,.678-.05l1.107.7-.474-.863a3.94,3.94,0,0,0,1.936-1.47l1.981,1.256-1.252-2.275a5.8,5.8,0,0,1,4.439-2.243,6.084,6.084,0,0,1,5.08,3.134,3.8,3.8,0,0,0,3.358,1.81l.111,0c2.274,0,4.118,2.579,4.118,5.76s-1.844,5.76-4.118,5.76a3.09,3.09,0,0,1-1.434-.359,5.943,5.943,0,0,0-4.984-.1,5.2,5.2,0,0,1-4.238.01,5.947,5.947,0,0,0-4.94.1,3.087,3.087,0,0,1-1.419.351c-2.274,0-4.118-2.579-4.118-5.76a7.313,7.313,0,0,1,.86-3.52Z" transform="translate(-222.849 -125.46)" fill="#f2f2f2"/>
    <path id="Path_483" data-name="Path 483" d="M150.831,206.723l3.266,2.071-1.983-3.605a3.229,3.229,0,0,1,1.975-.7h.053a3.784,3.784,0,0,0,.678-.05l1.107.7-.474-.863a3.939,3.939,0,0,0,1.936-1.47l1.981,1.256-1.251-2.276a5.8,5.8,0,0,1,4.439-2.243,6.084,6.084,0,0,1,5.08,3.134,3.8,3.8,0,0,0,3.358,1.81l.111,0c2.274,0,4.118,2.579,4.118,5.76S173.379,216,171.1,216a3.09,3.09,0,0,1-1.434-.359,5.942,5.942,0,0,0-4.984-.1,5.2,5.2,0,0,1-4.238.01,5.947,5.947,0,0,0-4.94.1,3.087,3.087,0,0,1-1.419.351c-2.274,0-4.118-2.579-4.118-5.76a7.314,7.314,0,0,1,.86-3.52Z" transform="translate(-124.747 -137.851)" fill="#f2f2f2"/>
    <path id="Path_484" data-name="Path 484" d="M400.677,665.864l-.57.57s.19,6.275.38,7.606.951,3.613.38,5.324-.761,3.042-.57,3.232-.19.951-.19.951l1.521-.951,2.472-5.7-1.141-6.085Z" transform="translate(-256.677 -383.804)" fill="#b28451"/>
    <path id="Path_485" data-name="Path 485" d="M400.677,665.864l-.57.57s.19,6.275.38,7.606.951,3.613.38,5.324-.761,3.042-.57,3.232-.19.951-.19.951l1.521-.951,2.472-5.7-1.141-6.085Z" transform="translate(-256.677 -383.804)" opacity="0.1"/>
    <path id="Path_486" data-name="Path 486" d="M414.614,786.332s0-2.092-.38-2.472-.951-1.711-1.711-1.711a10.726,10.726,0,0,0-3.423.951,3.472,3.472,0,0,1-.38,1.711c-.38.57-2.472,2.852-.38,3.233a5.313,5.313,0,0,0,3.993-.951c.19-.19.951-.38,1.141-.19S414.614,786.332,414.614,786.332Z" transform="translate(-260.535 -445.136)" fill="#b28451"/>
    <path id="Path_487" data-name="Path 487" d="M433.906,783.546l1.141,2.092s.38,1.9.951,2.092h.57s.57,2.092,1.9,1.9,2.852-.951,2.852-1.331,0-1.521-.57-1.9a27.1,27.1,0,0,1-2.282-2.092l-.951-.951Z" transform="translate(-274.503 -445.772)" fill="#b28451"/>
    <path id="Path_488" data-name="Path 488" d="M400.964,635.121a2.566,2.566,0,0,0-1.374,1.92c-.106,1.358,1.236,2.637.8,3.928-.245.733-1.009,1.208-1.228,1.949a2.682,2.682,0,0,0,.246,1.74,13.284,13.284,0,0,0,1.092,2.111c.8,1.258,1.845,2.452,2.059,3.929a1.677,1.677,0,0,1-.371,1.478,3.548,3.548,0,0,1,1.3-.617,16.509,16.509,0,0,0,5.324-2.965,3.326,3.326,0,0,0,1.231-1.637c.29-1.168-.6-2.337-.511-3.538a8.9,8.9,0,0,1,.749-2.174,5.617,5.617,0,0,0-.485-4.377,5.222,5.222,0,0,0-3.108-2.7,6.168,6.168,0,0,0-3.141.091A11.545,11.545,0,0,0,400.964,635.121Z" transform="translate(-256.155 -367.001)" fill="#2f2e41"/>
    <path id="Path_489" data-name="Path 489" d="M405.291,655.571a4.933,4.933,0,0,1,4.3-2.594c3.042,0,2.472-.19,2.472-.19l-.951,3.8-1.9,1.9Z" transform="translate(-259.411 -376.906)" fill="#b28451"/>
    <path id="Path_490" data-name="Path 490" d="M406.812,649.663s1.711,2.852.57,3.993a1.842,1.842,0,0,0-.38,2.472c.19.19,5.514.57,5.514.57l.19-2.662.57-2.282s-3.042-.57-2.662-1.9S406.812,649.663,406.812,649.663Z" transform="translate(-260.149 -375.019)" fill="#fbbebe"/>
    <path id="Path_491" data-name="Path 491" d="M406.812,649.663s1.711,2.852.57,3.993a1.842,1.842,0,0,0-.38,2.472c.19.19,5.514.57,5.514.57l.19-2.662.57-2.282s-3.042-.57-2.662-1.9S406.812,649.663,406.812,649.663Z" transform="translate(-260.149 -375.019)" opacity="0.1"/>
    <path id="Path_492" data-name="Path 492" d="M433.415,706.459a13.117,13.117,0,0,1-.761,1.9c-.19.19-.761-1.331-.761-1.331l.57-1.331Z" transform="translate(-273.442 -404.814)" fill="#fbbebe"/>
    <path id="Path_493" data-name="Path 493" d="M322.007,620l.76,4.374H311.359l.57-4.374Z" transform="translate(-164.221 -327.006)" fill="#fbbebe"/>
    <circle id="Ellipse_79" data-name="Ellipse 79" cx="3.613" cy="3.613" r="3.613" transform="translate(145.142 268.94)" fill="#fbbebe"/>
    <path id="Path_494" data-name="Path 494" d="M406.148,656.345s-2.092.19-2.092-.19-.19-1.521-.57-1.331-2.852.38-2.662.951.57,1.711.19,1.711a1.237,1.237,0,0,0-.951,1.521c.19.951,2.282,6.655,2.282,6.655a5.732,5.732,0,0,0,.761,2.472,1.706,1.706,0,0,1,0,2.092c-.38.38.951.761,1.521,1.521s4.944.19,5.134,0,4.754-.19,5.134-.57-.19-1.521-.19-1.521a8.846,8.846,0,0,1,0-2.282c.19-.57-.761-9.888-1.331-10.458s1.711-2.282,1.711-2.282-.38-1.521-2.852-1.711c0,0-.761-1.141-1.521-1.141a8.089,8.089,0,0,0-2.412.885s-.44,2.538-1.011,2.728a3.135,3.135,0,0,0-1.141.951Z" transform="translate(-256.633 -376.376)" fill="#b28451"/>
    <path id="Path_495" data-name="Path 495" d="M427.168,656.609l1.331.57s3.8,11.789,3.423,14.071-1.331,10.078-1.9,10.078-1.711-1.141-1.711-1.141v-1.9c0-.38-.57-1.521-.19-1.521s.951-.38.57-.761-.761-.951-.38-1.521.57-.761.38-1.331-.57-1.141-.19-1.521-.951-2.282-.951-2.282l-2.092-8.367.38-3.423Z" transform="translate(-270.047 -378.922)" fill="#b28451"/>
    <path id="Path_496" data-name="Path 496" d="M413.686,693.2s-7.226-.57-8.176-.57a12.43,12.43,0,0,1-3.084-.9,16.223,16.223,0,0,0-3.571,14.4c1.9,8.937,2.282,19.966,3.423,23.2a60.2,60.2,0,0,1,1.9,7.035s1.9-3.423,5.514.38c0,0,.38-2.852-.19-3.993s-1.331-7.226-1.331-7.226-1.331-9.7-1.331-10.838-.761-10.838-.57-11.029,1.141,7.416,1.331,8.747.761,11.6,1.331,12.74,3.233,10.268,4.754,10.839,6.655-.19,6.465-.57-1.521-2.472-1.9-3.042l-1.521-2.282-3.613-12.36,1.711-15.022S415.777,693.008,413.686,693.2Z" transform="translate(-255.804 -397.447)" fill="#2f2e41"/>
    <path id="Path_497" data-name="Path 497" d="M409.436,640.707H404.8a.825.825,0,0,1-.815-.7l-.46-2.916h7.226l-.646,3.068a.686.686,0,0,1-.671.544Z" transform="translate(-258.481 -368.63)" fill="#2f2e41"/>
    <path id="Path_498" data-name="Path 498" d="M824.715,573.834h7.31v10.443h0a7.31,7.31,0,0,1-7.31-7.31v-3.133Z" transform="translate(-434.98 -302.657)" fill="#2f2e41"/>
    <path id="Path_499" data-name="Path 499" d="M815.109,703.292l-.522,2.611h3.655l.174-2.611Z" transform="translate(-429.638 -370.937)" fill="#a0616a"/>
    <path id="Path_500" data-name="Path 500" d="M904.31,776.323s-.7-.522-1.044-.174-1.566,7.136-1.74,7.31-5.4,2.785-4.177,2.959,5.918.348,6.614,0,2.611-3.655,2.611-3.655v2.959h.348s.348-3.133,1.218-4-.7-3.829-.7-3.829.348-1.915.174-1.915S904.31,776.323,904.31,776.323Z" transform="translate(-518.84 -441.88)" fill="#b28451"/>
    <path id="Path_501" data-name="Path 501" d="M837.943,699.425l-.522,2.611h3.655l.174-2.611Z" transform="translate(-441.681 -368.897)" fill="#a0616a"/>
    <path id="Path_502" data-name="Path 502" d="M926.281,721.981s1.74,5.221,2.089,5.744,1.566,10.269,1.566,10.269-1.218,1.914.348,2.089.87-.348,1.915,0a1.966,1.966,0,0,0,1.74-.174s.522-1.044.174-1.392.348-9.4.348-9.4l-1.044-3.133-.87-9.921s1.044-2.611.522-3.307-2.263.522-2.263.522Z" transform="translate(-534.196 -408.423)" fill="#2f2e41"/>
    <path id="Path_503" data-name="Path 503" d="M915,703.788s-.522,5.57-.87,5.918-4.177,10.095-4.177,10.095-1.044,1.218-.7,5.744,1.218,9.051,1.218,9.051-.7,2.611.522,2.611,1.74-.7,2.263-.174.87,0,1.044-.348a9.327,9.327,0,0,0,.87-1.915c0-.348.7-9.225.7-9.225s5.744-12.706,6.266-13.4,3.481-4.525,3.307-7.136Z" transform="translate(-525.182 -403.806)" fill="#2f2e41"/>
    <circle id="Ellipse_80" data-name="Ellipse 80" cx="3.655" cy="3.655" r="3.655" transform="translate(390.518 269.175)" fill="#a0616a"/>
    <path id="Path_504" data-name="Path 504" d="M929.228,650.632a38.83,38.83,0,0,1,1.566,4c.174.87,3.481-1.74,3.481-1.74s-1.74-2.959-1.218-4.351Z" transform="translate(-535.751 -374.668)" fill="#a0616a"/>
    <path id="Path_505" data-name="Path 505" d="M930,656.135s-2.611-1.915-4.525,2.089-2.437,3.829-2.437,3.829-2.263.7-1.566,5.57-2.263,11.313-1.044,11.661,12.532,2.263,12.532.87-1.044-6.788-.174-10.095S931.563,655.265,930,656.135Z" transform="translate(-530.95 -378.431)" fill="#3f3d56"/>
    <path id="Path_506" data-name="Path 506" d="M930.336,658.487s-2.089,3.133-1.915,5.57.174,4,.174,4-3.481,16.709-2.785,16.709,2.785.87,2.959.348,4.525-11.139,4.525-11.139,1.044-10.617-.174-13.054S930.336,658.487,930.336,658.487Z" transform="translate(-533.9 -379.913)" fill="#3f3d56"/>
    <path id="Path_507" data-name="Path 507" d="M925.978,713s-1.74,5.918.7,6.092,1.044-5.744,1.044-5.744Z" transform="translate(-533.719 -408.663)" fill="#a0616a"/>
    <path id="Path_508" data-name="Path 508" d="M929.468,770.741s-.61-.457-.915-.152-1.372,6.249-1.524,6.4-4.725,2.439-3.658,2.591,5.182.3,5.792,0,2.286-3.2,2.286-3.2v2.591h.3s.3-2.744,1.067-3.506-.61-3.353-.61-3.353.3-1.677.152-1.677S929.468,770.741,929.468,770.741Z" transform="translate(-532.577 -438.958)" fill="#b28451"/>
    <path id="Path_509" data-name="Path 509" d="M921.812,635.826a1.016,1.016,0,0,1,.44-.312.919.919,0,0,1,.48.041,4.9,4.9,0,0,1,2.677,1.947,1.5,1.5,0,0,0,.54.584,3.187,3.187,0,0,1,.436.166c.407.269.164.892-.07,1.32a6.666,6.666,0,0,0-.8,3.6,1.029,1.029,0,0,0,.183.61,1.086,1.086,0,0,0,.723.289,17.854,17.854,0,0,0,2.547.136,3,3,0,0,0,2.3-.768,2.417,2.417,0,0,0,.112-2.54c-.378-.812-.991-1.491-1.427-2.274a13.333,13.333,0,0,1-.974-2.589,10.837,10.837,0,0,0-1.439-3.21,4.3,4.3,0,0,0-2.89-1.853c-1.581-.176-3.039.8-4.31,1.754-1.427,1.075-2.946,2.4-3.06,4.187-.093,1.444.774,2.751,1.228,4.125.7,2.122.406,4.427.106,6.641,1.289-.772,2.747-1.844,2.662-3.344-.057-1.012-.82-1.82-1.3-2.715C918.674,639.162,920.164,637.511,921.812,635.826Z" transform="translate(-529.446 -365.391)" fill="#2f2e41"/>
    <path id="Path_510" data-name="Path 510" d="M1019.78,660.235a12.518,12.518,0,0,0,1.656-6.346c0-5.735-3.552-10.385-7.933-10.385s-7.933,4.649-7.933,10.385a12.518,12.518,0,0,0,1.656,6.346,12.99,12.99,0,0,0,0,12.692,12.99,12.99,0,0,0,0,12.692,12.99,12.99,0,0,0,0,12.692,12.517,12.517,0,0,0-1.656,6.346c0,5.735,3.552,10.385,7.933,10.385s7.933-4.649,7.933-10.385a12.518,12.518,0,0,0-1.656-6.346,12.99,12.99,0,0,0,0-12.692,12.99,12.99,0,0,0,0-12.692,12.989,12.989,0,0,0,0-12.692Z" transform="translate(-576.016 -372.011)" fill="#3f3d56"/>
    <ellipse id="Ellipse_81" data-name="Ellipse 81" cx="7.933" cy="10.385" rx="7.933" ry="10.385" transform="translate(429.556 258.802)" fill="#3f3d56"/>
    <ellipse id="Ellipse_82" data-name="Ellipse 82" cx="7.933" cy="10.385" rx="7.933" ry="10.385" transform="translate(429.556 246.11)" fill="#3f3d56"/>
    <path id="Path_511" data-name="Path 511" d="M1009.459,359.337a38.087,38.087,0,0,0,2.954-4.349l-20.844-3.423,22.543.168a38.064,38.064,0,0,0,.726-30.107l-30.244,15.689,27.892-20.5a38,38,0,1,0-62.759,42.525,38.019,38.019,0,0,0-4.333,6.929l27.058,14.057-28.85-9.682a38.02,38.02,0,0,0,6.127,35.682,38,38,0,1,0,59.731,0,38,38,0,0,0,0-46.986Z" transform="translate(-542.274 -189.699)" fill="#f2f2f2"/>
    <path id="Path_512" data-name="Path 512" d="M941.593,477.056a37.835,37.835,0,0,0,8.132,23.493,38,38,0,1,0,59.732,0C1014.552,494.084,941.593,472.791,941.593,477.056Z" transform="translate(-542.272 -283.926)" fill="#f2f2f2"/>
    <path id="Path_513" data-name="Path 513" d="M1009.459,359.337a38.087,38.087,0,0,0,2.954-4.349l-20.844-3.423,22.543.168a38.064,38.064,0,0,0,.726-30.107l-30.244,15.689,27.892-20.5a38,38,0,1,0-62.759,42.525,38.019,38.019,0,0,0-4.333,6.929l27.058,14.057-28.85-9.682a38.02,38.02,0,0,0,6.127,35.682,38,38,0,1,0,59.731,0,38,38,0,0,0,0-46.986Z" transform="translate(-542.274 -189.699)" fill="#57b894"/>
    <path id="Path_514" data-name="Path 514" d="M941.593,477.056a37.835,37.835,0,0,0,8.132,23.493,38,38,0,1,0,59.732,0C1014.552,494.084,941.593,472.791,941.593,477.056Z" transform="translate(-542.272 -283.926)" opacity="0.1"/>
    <path id="Path_515" data-name="Path 515" d="M174.782,660.235a12.518,12.518,0,0,0,1.656-6.346c0-5.735-3.552-10.385-7.933-10.385s-7.933,4.649-7.933,10.385a12.518,12.518,0,0,0,1.656,6.346,12.99,12.99,0,0,0,0,12.692,12.99,12.99,0,0,0,0,12.692,12.99,12.99,0,0,0,0,12.692,12.519,12.519,0,0,0-1.656,6.346c0,5.735,3.552,10.385,7.933,10.385s7.933-4.649,7.933-10.385a12.518,12.518,0,0,0-1.656-6.346,12.99,12.99,0,0,0,0-12.692,12.99,12.99,0,0,0,0-12.692,12.99,12.99,0,0,0,0-12.692Z" transform="translate(-130.339 -372.011)" fill="#3f3d56"/>
    <ellipse id="Ellipse_83" data-name="Ellipse 83" cx="7.933" cy="10.385" rx="7.933" ry="10.385" transform="translate(30.234 258.802)" fill="#3f3d56"/>
    <ellipse id="Ellipse_84" data-name="Ellipse 84" cx="7.933" cy="10.385" rx="7.933" ry="10.385" transform="translate(30.234 246.11)" fill="#3f3d56"/>
    <path id="Path_516" data-name="Path 516" d="M164.457,359.337a38.085,38.085,0,0,0,2.954-4.349l-20.844-3.423,22.543.168a38.064,38.064,0,0,0,.726-30.107l-30.244,15.689,27.892-20.5a38,38,0,1,0-62.759,42.525,38.02,38.02,0,0,0-4.333,6.93l27.056,14.057L98.6,370.641a38.02,38.02,0,0,0,6.127,35.682,38,38,0,1,0,59.731,0,38,38,0,0,0,0-46.986Z" transform="translate(-96.594 -189.7)" fill="#f2f2f2"/>
    <path id="Path_517" data-name="Path 517" d="M96.594,477.056a37.834,37.834,0,0,0,8.132,23.493,38,38,0,1,0,59.731,0C169.549,494.084,96.594,472.791,96.594,477.056Z" transform="translate(-96.594 -283.926)" fill="#f2f2f2"/>
    <path id="Path_518" data-name="Path 518" d="M164.457,359.337a38.085,38.085,0,0,0,2.954-4.349l-20.844-3.423,22.543.168a38.064,38.064,0,0,0,.726-30.107l-30.244,15.689,27.892-20.5a38,38,0,1,0-62.759,42.525,38.02,38.02,0,0,0-4.333,6.93l27.056,14.057L98.6,370.641a38.02,38.02,0,0,0,6.127,35.682,38,38,0,1,0,59.731,0,38,38,0,0,0,0-46.986Z" transform="translate(-96.594 -189.7)" fill="#57b894"/>
    <path id="Path_519" data-name="Path 519" d="M96.594,477.056a37.834,37.834,0,0,0,8.132,23.493,38,38,0,1,0,59.731,0C169.549,494.084,96.594,472.791,96.594,477.056Z" transform="translate(-96.594 -283.926)" opacity="0.1"/>
    <path id="Path_520" data-name="Path 520" d="M544.558,354.556,525.7,373.41l-8.933-8.933-3.478,3.478,12.4,12.4,22.344-22.32Z" transform="translate(-270.727 -187.003)" fill="#57b894"/>
    <path id="Path_521" data-name="Path 521" d="M671.558,263.556,652.7,282.41l-8.933-8.933-3.478,3.478,12.4,12.4,22.344-22.32Z" transform="translate(-337.711 -139.007)" fill="#57b894"/>
  </g>
</svg>
