<svg xmlns="http://www.w3.org/2000/svg" width="559.022" height="365.071" viewBox="0 0 559.022 365.071">
  <g id="Group_271" data-name="Group 271" transform="translate(-301 -426)">
    <path id="Path_196" data-name="Path 196" d="M518.331,394.04C473.827,420,443.355,471.385,398.356,496.18c-20.556,11.328-43.744,16.851-62.06,32.471-24.233,20.667-35.8,55.308-44.781,88.477a1237.541,1237.541,0,0,0-26.843,124.607H823.694c-22.643-55.2-40.5-115.123-61.254-169.667C735.976,502.5,705.266,427.621,646.316,393.664A127.732,127.732,0,0,0,518.331,394.04Z" transform="translate(36.328 49.335)" fill="rgba(178,132,81,0.5)"/>
    <g id="undraw_choosing_house_v37h" transform="translate(331.403 441.088)">
      <path id="Path_156" data-name="Path 156" d="M406.142,719.607c-7.408,9.92-22.784,10.964-22.784,10.964s-3.367-15.04,4.041-24.96,22.784-10.964,22.784-10.964S413.549,709.687,406.142,719.607Z" transform="translate(-269.144 -401.998)" fill="#e6e6e6"/>
      <path id="Path_157" data-name="Path 157" d="M351.974,734.9c4.888,6.546,15.035,7.235,15.035,7.235s2.221-9.924-2.666-16.47-15.035-7.235-15.035-7.235S347.086,728.357,351.974,734.9Z" transform="translate(-252.712 -413.565)" fill="#e6e6e6"/>
      <path id="Path_158" data-name="Path 158" d="M132.4,639.745H0v-1.082H132.6Z" transform="translate(0 -310.575)" fill="#3f3d56"/>
      <rect id="Rectangle_78" data-name="Rectangle 78" width="88.185" height="131.638" transform="translate(362.084 30.673)" fill="#e6e6e6"/>
      <rect id="Rectangle_79" data-name="Rectangle 79" width="78.767" height="117.579" transform="translate(366.793 37.702)" fill="#fff"/>
      <rect id="Rectangle_80" data-name="Rectangle 80" width="3.812" height="13.197" transform="translate(418.33 121.367)" fill="#3f3d56"/>
      <path id="Path_159" data-name="Path 159" d="M789.647,247.378l-9.49-11.408H761.681l-11.291,11,.228.146h-.082v22.875h39.005V247.114Z" transform="translate(-364.907 -114.75)" fill="#3f3d56"/>
      <path id="Path_160" data-name="Path 160" d="M797.654,235.684,786.07,249.265V269.85h20.822V246.682Z" transform="translate(-382.257 -114.611)" fill="#b28451"/>
      <rect id="Rectangle_81" data-name="Rectangle 81" width="4.252" height="3.759" transform="translate(412.171 143.856)" fill="#3f3d56"/>
      <rect id="Rectangle_82" data-name="Rectangle 82" width="4.252" height="3.699" transform="translate(412.171 137.35)" fill="#3f3d56"/>
      <rect id="Rectangle_83" data-name="Rectangle 83" width="4.252" height="3.759" transform="translate(412.171 143.856)" fill="#fff"/>
      <rect id="Rectangle_84" data-name="Rectangle 84" width="4.252" height="3.699" transform="translate(412.171 137.35)" fill="#fff"/>
      <path id="Path_161" data-name="Path 161" d="M942.2,424.242a1.717,1.717,0,0,1,1.96-1.688" transform="translate(-541.273 -269.673)" fill="#e6e6e6"/>
      <ellipse id="Ellipse_18" data-name="Ellipse 18" cx="0.935" cy="0.935" rx="0.935" ry="0.935" transform="translate(399.462 150.88)" fill="#6c63ff"/>
      <rect id="Rectangle_85" data-name="Rectangle 85" width="0.264" height="1.848" transform="translate(400.245 153.39)" fill="#e6e6e6"/>
      <rect id="Rectangle_86" data-name="Rectangle 86" width="88.185" height="131.638" transform="translate(241.309 30.673)" fill="#e6e6e6"/>
      <rect id="Rectangle_87" data-name="Rectangle 87" width="78.767" height="117.579" transform="translate(246.018 37.702)" fill="#fff"/>
      <path id="Path_162" data-name="Path 162" d="M917.734,281.847l2.27-1.815a2.4,2.4,0,0,0-2.784,1.528,3.866,3.866,0,0,0-2.877.178l4.541,1.649a3.437,3.437,0,0,0-1.15-1.539Z" transform="translate(-527.727 -200.363)" fill="#3f3d56"/>
      <path id="Path_163" data-name="Path 163" d="M726.958,274.927l2.27-1.815a2.4,2.4,0,0,0-2.784,1.528,3.866,3.866,0,0,0-2.877.178l4.541,1.649A3.436,3.436,0,0,0,726.958,274.927Z" transform="translate(-434.955 -196.997)" fill="#3f3d56"/>
      <path id="Path_164" data-name="Path 164" d="M977.865,248.467l2.27-1.815a2.4,2.4,0,0,0-2.784,1.528,3.866,3.866,0,0,0-2.877.178l4.541,1.649a3.438,3.438,0,0,0-1.15-1.539Z" transform="translate(-556.969 -184.13)" fill="#3f3d56"/>
      <rect id="Rectangle_88" data-name="Rectangle 88" width="3.812" height="13.197" transform="translate(300.431 108.332)" fill="#3f3d56"/>
      <rect id="Rectangle_89" data-name="Rectangle 89" width="3.812" height="13.197" transform="translate(300.431 107.013)" fill="#3f3d56"/>
      <path id="Path_165" data-name="Path 165" d="M552.2,226.447l-13.013-15.456H513.654l-15.6,15.2.315.2h-.113V258h53.9V226.392Z" transform="translate(-242.197 -102.603)" fill="#3f3d56"/>
      <path id="Path_166" data-name="Path 166" d="M563.369,210.6,547.36,229.366v28.447h28.775V225.8Z" transform="translate(-266.175 -102.411)" fill="#c69963"/>
      <rect id="Rectangle_90" data-name="Rectangle 90" width="5.877" height="5.689" transform="translate(288.679 139.175)" fill="#3f3d56"/>
      <rect id="Rectangle_91" data-name="Rectangle 91" width="5.877" height="5.689" transform="translate(288.679 130.679)" fill="#3f3d56"/>
      <rect id="Rectangle_92" data-name="Rectangle 92" width="5.877" height="5.689" transform="translate(288.679 139.175)" fill="#fff"/>
      <rect id="Rectangle_93" data-name="Rectangle 93" width="5.877" height="5.689" transform="translate(288.679 130.679)" fill="#fff"/>
      <rect id="Rectangle_94" data-name="Rectangle 94" width="5.877" height="5.689" transform="translate(297.275 139.175)" fill="#3f3d56"/>
      <rect id="Rectangle_95" data-name="Rectangle 95" width="5.877" height="5.689" transform="translate(297.275 130.679)" fill="#3f3d56"/>
      <rect id="Rectangle_96" data-name="Rectangle 96" width="5.877" height="5.689" transform="translate(297.275 139.175)" fill="#fff"/>
      <rect id="Rectangle_97" data-name="Rectangle 97" width="5.877" height="5.689" transform="translate(297.275 130.679)" fill="#fff"/>
      <ellipse id="Ellipse_19" data-name="Ellipse 19" cx="22.623" cy="22.623" rx="22.623" ry="22.623" transform="translate(179.488 0)" fill="#ff6584"/>
      <rect id="Rectangle_98" data-name="Rectangle 98" width="88.185" height="131.638" transform="translate(120.535 30.673)" fill="#e6e6e6"/>
      <rect id="Rectangle_99" data-name="Rectangle 99" width="78.767" height="117.579" transform="translate(125.244 37.702)" fill="#fff"/>
      <path id="Path_167" data-name="Path 167" d="M322.8,209.2l-15.881-18.913H275.7l-19.081,18.585.386.248h-.138v38.656h65.914V209.121Z" transform="translate(-124.791 -92.535)" fill="#3f3d56"/>
      <path id="Path_168" data-name="Path 168" d="M506.57,271.592l2.143-1.714a2.271,2.271,0,0,0-2.629,1.443,3.65,3.65,0,0,0-2.717.168l4.288,1.557A3.244,3.244,0,0,0,506.57,271.592Z" transform="translate(-327.874 -195.426)" fill="#3f3d56"/>
      <rect id="Rectangle_100" data-name="Rectangle 100" width="3.6" height="12.461" transform="translate(184.857 95.982)" fill="#3f3d56"/>
      <path id="Path_169" data-name="Path 169" d="M336.491,189.806l-19.576,22.951v34.786H352.1V208.39Z" transform="translate(-154.112 -92.301)" fill="#b28451"/>
      <path id="Path_170" data-name="Path 170" d="M447.829,424.41a1.621,1.621,0,0,1,1.851-1.594" transform="translate(-300.867 -269.801)" fill="#e6e6e6"/>
      <ellipse id="Ellipse_20" data-name="Ellipse 20" cx="0.883" cy="0.883" rx="0.883" ry="0.883" transform="translate(145.58 151.126)" fill="#6c63ff"/>
      <rect id="Rectangle_101" data-name="Rectangle 101" width="0.249" height="1.745" transform="translate(146.32 153.496)" fill="#e6e6e6"/>
      <path id="Path_171" data-name="Path 171" d="M463.192,424.41a1.621,1.621,0,0,1,1.851-1.594" transform="translate(-308.338 -269.801)" fill="#e6e6e6"/>
      <ellipse id="Ellipse_21" data-name="Ellipse 21" cx="0.883" cy="0.883" rx="0.883" ry="0.883" transform="translate(153.473 151.126)" fill="#6c63ff"/>
      <rect id="Rectangle_102" data-name="Rectangle 102" width="0.249" height="1.745" transform="translate(154.212 153.496)" fill="#e6e6e6"/>
      <path id="Path_172" data-name="Path 172" d="M426.806,424.41a1.621,1.621,0,0,1,1.851-1.594" transform="translate(-290.644 -269.801)" fill="#e6e6e6"/>
      <ellipse id="Ellipse_22" data-name="Ellipse 22" cx="0.883" cy="0.883" rx="0.883" ry="0.883" transform="translate(134.781 151.126)" fill="#6c63ff"/>
      <rect id="Rectangle_103" data-name="Rectangle 103" width="0.249" height="1.745" transform="translate(135.52 153.496)" fill="#e6e6e6"/>
      <rect id="Rectangle_104" data-name="Rectangle 104" width="7.186" height="7.348" transform="translate(167.326 125.011)" fill="#3f3d56"/>
      <rect id="Rectangle_105" data-name="Rectangle 105" width="7.186" height="7.348" transform="translate(167.326 135.009)" fill="#3f3d56"/>
      <rect id="Rectangle_106" data-name="Rectangle 106" width="7.186" height="7.348" transform="translate(167.326 125.011)" fill="#fff"/>
      <rect id="Rectangle_107" data-name="Rectangle 107" width="7.186" height="7.348" transform="translate(167.326 135.009)" fill="#fff"/>
      <rect id="Rectangle_108" data-name="Rectangle 108" width="7.186" height="7.348" transform="translate(177.265 125.011)" fill="#3f3d56"/>
      <rect id="Rectangle_109" data-name="Rectangle 109" width="7.186" height="7.348" transform="translate(177.265 135.009)" fill="#3f3d56"/>
      <rect id="Rectangle_110" data-name="Rectangle 110" width="7.186" height="7.348" transform="translate(177.265 125.011)" fill="#fff"/>
      <rect id="Rectangle_111" data-name="Rectangle 111" width="7.186" height="7.348" transform="translate(177.265 135.009)" fill="#fff"/>
      <rect id="Rectangle_112" data-name="Rectangle 112" width="7.186" height="7.348" transform="translate(187.203 125.011)" fill="#3f3d56"/>
      <rect id="Rectangle_113" data-name="Rectangle 113" width="7.186" height="7.348" transform="translate(187.203 135.009)" fill="#3f3d56"/>
      <rect id="Rectangle_114" data-name="Rectangle 114" width="7.186" height="7.348" transform="translate(187.203 125.011)" fill="#fff"/>
      <rect id="Rectangle_115" data-name="Rectangle 115" width="7.186" height="7.348" transform="translate(187.203 135.009)" fill="#fff"/>
      <path id="Path_173" data-name="Path 173" d="M725.491,427.183H396.649s66.767-16.078,165.107-15.9q.828,0,1.656,0,2.943.011,5.919.04,2.33.025,4.679.062c.677.009,1.353.021,2.034.033l.809.014,1.882.038q1.775.036,3.561.081,1.565.039,3.145.085c.4.009.809.021,1.213.036q2.863.082,5.749.189l1.342.05c.616.021,1.236.047,1.852.071l2.449.1c1.062.045,2.12.092,3.183.142q3.334.153,6.705.336,2.506.131,5.027.284c.714.043,1.432.088,2.151.133q1.65.1,3.307.211l2.113.142c.85.057,1.7.116,2.548.178s1.7.123,2.551.187l2.563.194c.858.066,1.712.133,2.57.2s1.693.137,2.544.208q5.432.451,10.943.983c.7.066,1.414.135,2.12.206q1.094.107,2.2.22,1.531.153,3.073.317,1.321.139,2.646.282c.8.085,1.6.173,2.4.263l.25.028c.884.1,1.773.2,2.657.3s1.78.206,2.668.31,1.784.211,2.676.32,1.788.218,2.684.329l2.094.263,1.043.133,2.253.294,2.7.358c.1.014.2.028.3.04q2.1.284,4.2.578l.575.081q1.1.153,2.2.313c.733.107,1.467.211,2.2.32.03,0,.06.007.091.012,1.039.152,2.075.306,3.118.464q.777.114,1.553.234c.711.107,1.417.216,2.128.327l1.4.22c.344.05.688.1,1.032.161q1.089.167,2.181.346l2.03.329a.46.46,0,0,1,.057.01l.484.078c.5.081.99.163,1.489.246s1.024.171,1.538.258c.45.076.9.152,1.353.23a.17.17,0,0,1,.038,0c.064.009.129.021.193.033.522.088,1.043.175,1.565.268s1.043.18,1.569.272c.053.007.106.017.159.026q.607.1,1.213.213s0,0,0,0c.231.038.461.081.692.121l1.848.329c.4.071.8.142,1.194.216q1.661.3,3.33.609c1.111.206,2.226.415,3.338.625.669.126,1.334.253,2,.384q.941.178,1.882.362C723.616,426.813,724.556,427,725.491,427.183Z" transform="translate(-275.979 -264.203)" fill="#e6e6e6"/>
      <path id="Path_174" data-name="Path 174" d="M396.649,442.231" transform="translate(-275.979 -279.251)" fill="none" stroke="#3f3d56" stroke-miterlimit="10" stroke-width="2"/>
      <path id="Path_175" data-name="Path 175" d="M725.28,427.2c-.834-.166-1.671-.329-2.505-.491l-.309-.06q-.94-.185-1.879-.362c-.671-.131-1.335-.259-2-.384q-1.668-.316-3.337-.625-1.459-.271-2.916-.534l-.412-.075c-.339-.063-.68-.123-1.019-.184l-.174-.031q-.84-.152-1.68-.3l-.26-.046v.005l-.606-.11-.033-.006-.058-.011q-.558-.1-1.116-.2c-.053-.01-.1-.018-.14-.023l-1.588-.275c-.5-.088-.993-.172-1.488-.255l-.075-.013c-.066-.012-.124-.023-.182-.032l-1.245-.21-3.723-.618q-1.014-.167-2.028-.329-1.093-.178-2.177-.345c-.347-.057-.687-.111-1.027-.16l-1.406-.221c-.709-.111-1.415-.22-2.124-.326q-.778-.121-1.552-.234c-1.045-.159-2.08-.313-3.118-.464l-.091-.012q-.709-.105-1.414-.206l-.789-.114q-1.1-.16-2.2-.312l-.574-.081q-2.1-.295-4.2-.578c-.08-.009-.166-.021-.254-.033l-8.136-1.053c-.895-.111-1.787-.22-2.682-.329s-1.782-.215-2.673-.32-1.78-.208-2.667-.31-1.771-.2-2.655-.3l-.252-.029c-.8-.09-1.6-.177-2.4-.263q-1.242-.136-2.474-.264l-.171-.018q-1.542-.163-3.071-.317-1.1-.114-2.195-.22c-.707-.071-1.417-.139-2.119-.206-3.6-.348-7.275-.678-10.937-.983-.866-.072-1.7-.143-2.541-.208-.86-.071-1.713-.137-2.57-.2s-1.707-.131-2.561-.194c-.762-.057-1.527-.113-2.287-.168l-.264-.019c-.849-.062-1.7-.121-2.545-.177l-2.114-.142q-1.653-.11-3.3-.211l-.192-.012-1.958-.121q-2.52-.149-5.023-.284-3.367-.185-6.7-.336c-1.062-.05-2.119-.1-3.181-.142q-1.111-.048-2.222-.093l-.851-.034c-.408-.016-.817-.032-1.224-.046l-1.344-.05q-2.884-.107-5.744-.19c-.406-.014-.812-.026-1.211-.035-1.056-.031-2.1-.059-3.145-.085q-1.784-.043-3.558-.081l-2.69-.052-2.031-.033c-1.569-.026-3.125-.045-4.678-.061q-2.975-.032-5.916-.04h-.15l-1.5,0-1.64,0c-96.273,0-162.683,15.723-163.347,15.883l-.241-1c.664-.16,67.2-15.911,163.587-15.911h1.641q.752,0,1.506,0h.151q2.944.011,5.923.04,2.332.025,4.682.061,1.014.014,2.034.033l2.694.052q1.774.036,3.561.081,1.567.039,3.148.085c.4.009.81.021,1.217.035q2.86.082,5.75.19l1.342.05c.407.014.818.03,1.228.047l.853.034,2.223.093c1.063.045,2.122.093,3.185.142q3.336.153,6.71.337,2.506.132,5.029.284.978.058,1.962.121l.191.012q1.65.1,3.31.211l2.114.142c.851.057,1.7.116,2.55.178l.264.019c.76.055,1.527.111,2.289.168l2.564.194c.859.066,1.714.133,2.573.2q1.256.1,2.52.207c3.691.307,7.375.638,10.974.986.7.066,1.414.135,2.122.206.729.071,1.463.145,2.2.221q1.53.153,3.075.317l.17.018q1.236.13,2.478.264c.8.085,1.6.173,2.405.263l.25.029c.883.1,1.772.2,2.658.3s1.78.206,2.669.311,1.786.211,2.678.32,1.789.218,2.685.33l8.152,1.055c.08.011.158.022.238.031,1.41.191,2.809.383,4.212.58l.572.08q1.1.153,2.2.314l.788.114,1.418.206c.013,0,.052.006.1.013q1.552.226,3.115.464.775.113,1.555.235c.709.106,1.417.215,2.129.327l1.4.22c.341.049.689.1,1.036.162q1.081.166,2.179.346,1.015.163,2.031.329a.838.838,0,0,1,.1.018l3.629.6c.385.065.772.13,1.156.2l.1.015c.044.006.113.018.184.031l.067.011c.5.084,1,.168,1.5.256l1.568.272c.037,0,.1.015.155.025q.52.088,1.038.182l.106-.059.172.107.356.062.409.072,1.682.3.173.031c.341.061.683.122,1.023.185l.41.074,2.92.534c1.112.206,2.228.415,3.34.626q1,.188,2.006.384c.626.118,1.255.239,1.883.362l.307.06c.836.163,1.675.326,2.51.492Z" transform="translate(-275.865 -263.717)" fill="#3f3d56"/>
      <ellipse id="Ellipse_23" data-name="Ellipse 23" cx="38.732" cy="38.732" rx="38.732" ry="38.732" transform="translate(308.119 8.516)" fill="#c69963"/>
      <path id="Path_176" data-name="Path 176" d="M831.927,166.586a38.734,38.734,0,0,1-64.538,40.992,38.735,38.735,0,1,0,64.538-40.992Z" transform="translate(-456.265 -145.208)" opacity="0.2"/>
      <path id="Path_177" data-name="Path 177" d="M673.48,91.974h.106l1.916,109.81h-4.043Z" transform="translate(-326.523 -44.726)" fill="#3f3d56"/>
      <rect id="Rectangle_116" data-name="Rectangle 116" width="1.915" height="7.236" transform="translate(353.117 105.367) rotate(62.234)" fill="#3f3d56"/>
      <path id="Path_178" data-name="Path 178" d="M656.934,429.615s.164-3.428,3.517-3.029" transform="translate(-402.552 -271.627)" fill="#3f3d56"/>
      <ellipse id="Ellipse_24" data-name="Ellipse 24" cx="1.678" cy="1.678" rx="1.678" ry="1.678" transform="translate(251.756 151.369)" fill="#6c63ff"/>
      <rect id="Rectangle_117" data-name="Rectangle 117" width="0.474" height="3.316" transform="translate(253.161 155.874)" fill="#3f3d56"/>
      <path id="Path_179" data-name="Path 179" d="M775.907,431s.164-3.428,3.517-3.029" transform="translate(-460.408 -272.3)" fill="#3f3d56"/>
      <ellipse id="Ellipse_25" data-name="Ellipse 25" cx="1.678" cy="1.678" rx="1.678" ry="1.678" transform="translate(312.873 152.079)" fill="#6c63ff"/>
      <rect id="Rectangle_118" data-name="Rectangle 118" width="0.474" height="3.316" transform="translate(314.278 156.584)" fill="#3f3d56"/>
      <path id="Path_180" data-name="Path 180" d="M579.924,419.47s.164-3.428,3.517-3.029" transform="translate(-365.103 -266.694)" fill="#3f3d56"/>
      <ellipse id="Ellipse_26" data-name="Ellipse 26" cx="1.678" cy="1.678" rx="1.678" ry="1.678" transform="translate(212.195 146.157)" fill="#6c63ff"/>
      <rect id="Rectangle_119" data-name="Rectangle 119" width="0.474" height="3.316" transform="translate(213.6 150.662)" fill="#3f3d56"/>
      <path id="Path_181" data-name="Path 181" d="M630.188,410.708s.164-3.428,3.517-3.029" transform="translate(-389.546 -262.433)" fill="#3f3d56"/>
      <ellipse id="Ellipse_27" data-name="Ellipse 27" cx="1.678" cy="1.678" rx="1.678" ry="1.678" transform="translate(238.016 141.656)" fill="#6c63ff"/>
      <rect id="Rectangle_120" data-name="Rectangle 120" width="0.474" height="3.316" transform="translate(239.421 146.161)" fill="#3f3d56"/>
      <path id="Path_182" data-name="Path 182" d="M756.078,423.159s.164-3.428,3.517-3.029" transform="translate(-450.765 -268.488)" fill="#3f3d56"/>
      <ellipse id="Ellipse_28" data-name="Ellipse 28" cx="1.678" cy="1.678" rx="1.678" ry="1.678" transform="translate(302.687 148.052)" fill="#6c63ff"/>
      <rect id="Rectangle_121" data-name="Rectangle 121" width="0.474" height="3.316" transform="translate(304.092 152.557)" fill="#3f3d56"/>
      <path id="Path_183" data-name="Path 183" d="M661.523,141.5l2.181-1.744a2.311,2.311,0,0,0-2.675,1.468,3.715,3.715,0,0,0-2.764.171l4.363,1.584A3.3,3.3,0,0,0,661.523,141.5Z" transform="translate(-403.199 -132.147)" fill="#3f3d56"/>
      <path id="Path_184" data-name="Path 184" d="M726.082,176.081l2.181-1.744a2.311,2.311,0,0,0-2.675,1.468,3.715,3.715,0,0,0-2.764.171l4.363,1.584A3.3,3.3,0,0,0,726.082,176.081Z" transform="translate(-434.594 -148.965)" fill="#3f3d56"/>
      <path id="Path_185" data-name="Path 185" d="M656.45,205.593l2.181-1.744a2.311,2.311,0,0,0-2.675,1.468,3.715,3.715,0,0,0-2.764.171l4.363,1.584a3.3,3.3,0,0,0-1.1-1.479Z" transform="translate(-400.732 -163.316)" fill="#3f3d56"/>
      <ellipse id="Ellipse_29" data-name="Ellipse 29" cx="4.247" cy="6.37" rx="4.247" ry="6.37" transform="translate(68.806 157.768) rotate(-17.267)" fill="#2f2e41"/>
      <path id="Path_186" data-name="Path 186" d="M213.964,388.154s-1.274,25.48,1.274,42.466,5.521,33.124,5.521,33.124,7.219-5.521,11.466-3.822l-7.644-59.028Z" transform="translate(-186.986 -252.954)" fill="#c69963"/>
      <ellipse id="Ellipse_30" data-name="Ellipse 30" cx="14.014" cy="14.014" rx="14.014" ry="14.014" transform="translate(39.93 79.357)" fill="#ffb8b8"/>
      <path id="Path_187" data-name="Path 187" d="M81.607,188.784l-5.945,15.288,8.493,3.822,8.493-15.288Z" transform="translate(-36.794 -91.804)" fill="#ffb8b8"/>
      <path id="Path_188" data-name="Path 188" d="M219.9,338.3h0s-8.481-5.628-12.3-3.5l-3.4,8.069s-11.891,14.863-7.219,25.9,15.288,23.781,15.288,23.781l1.274,5.945s-16.562,21.658-14.863,37.795l-19.959,54.357s11.041,4.671,47.987,6.37,36.946,0,36.946,0-4.671-90.453-19.11-104.891l-2.123-6.795s2.973-19.11-3.822-27.178l-2.3-4.592A31.987,31.987,0,0,0,219.9,338.3Z" transform="translate(-170.001 -226.773)" fill="#2f2e41"/>
      <path id="Path_189" data-name="Path 189" d="M300.237,518.386l.849,11.466s-1.274,14.863,7.219,11.891,1.7-19.534,1.7-19.534l-1.274-5.1Z" transform="translate(-229.094 -315.665)" fill="#ffb8b8"/>
      <path id="Path_190" data-name="Path 190" d="M177.308,634.5l-4.672,45.439s-5.945,3.4-2.973,12.74,2.123,14.014,2.123,14.014l2.973-.849,1.274-11.466s4.99,6.37,9.343,7.644c3.023.885,6.148,1.565,8.2-.8a5.541,5.541,0,0,0-2.07-8.571,6.963,6.963,0,0,0-1.037-.391c-2.973-.849-5.945-12.315-5.945-12.315l5.1-20.808,7.644-22.932Z" transform="translate(-165.193 -372.748)" fill="#2f2e41"/>
      <path id="Path_191" data-name="Path 191" d="M289.733,634.5l-4.671,45.439s-5.945,3.4-2.973,12.74,2.123,14.014,2.123,14.014l2.973-.849,1.274-11.466s4.99,6.37,9.343,7.644c3.023.885,6.148,1.565,8.2-.8a5.54,5.54,0,0,0-2.07-8.571,6.964,6.964,0,0,0-1.037-.391c-2.973-.849-5.946-12.315-5.946-12.315l5.1-20.808,7.644-22.932Z" transform="translate(-219.865 -372.748)" fill="#2f2e41"/>
      <path id="Path_192" data-name="Path 192" d="M255.689,357.389s-10.192,5.945-7.219,19.534,23.781,71.768,23.781,71.768a14.161,14.161,0,0,1,14.014-3.4l-19.11-73.467S268.429,355.266,255.689,357.389Z" transform="translate(-203.656 -237.902)" opacity="0.4"/>
      <path id="Path_193" data-name="Path 193" d="M259,352.43s-10.192,5.945-7.219,19.534,23.781,71.768,23.781,71.768a14.161,14.161,0,0,1,14.014-3.4l-19.11-73.467S271.736,350.306,259,352.43Z" transform="translate(-205.264 -235.49)" fill="#c69963"/>
      <path id="Path_194" data-name="Path 194" d="M257.577,284.41s2.159-16.8-15.456-11.292c0,0-12.581-2.308-16.706,13.428l-4.177,16.5,2.036-1.108.949,2.075,3.3.836,1.412-2.8.683,3.4,27.022,2.694s-12.1-7.157-12.294-19.985l2.305,2.436Z" transform="translate(-190.678 -196.474)" fill="#2f2e41"/>
      <ellipse id="Ellipse_31" data-name="Ellipse 31" cx="6.795" cy="6.795" rx="6.795" ry="6.795" transform="translate(30.163 70.014)" fill="#2f2e41"/>
      <path id="Path_195" data-name="Path 195" d="M240.891,265.179a6.789,6.789,0,0,0-6.791-6.351c.14-.018.279-.039.422-.049a6.795,6.795,0,0,1,.872,13.561c-.143.009-.284.006-.425.006A6.789,6.789,0,0,0,240.891,265.179Z" transform="translate(-196.933 -190.034)" fill="#2f2e41"/>
      <ellipse id="Ellipse_32" data-name="Ellipse 32" cx="2.123" cy="2.973" rx="2.123" ry="2.973" transform="translate(51.82 91.672)" fill="#ffb8b8"/>
    </g>
  </g>
</svg>
