<svg xmlns="http://www.w3.org/2000/svg" width="33.063" height="33.063" viewBox="0 0 33.063 33.063">
  <g id="settings" transform="translate(0 0)">
    <path id="Path_559" data-name="Path 559" d="M17.569,33.063H15.494a3.047,3.047,0,0,1-3.044-3.044v-.7a13.348,13.348,0,0,1-2.073-.86l-.5.5a3.044,3.044,0,0,1-4.3,0L4.108,27.487a3.044,3.044,0,0,1,0-4.3l.5-.5a13.349,13.349,0,0,1-.86-2.073h-.7A3.047,3.047,0,0,1,0,17.569V15.494A3.047,3.047,0,0,1,3.044,12.45h.7a13.351,13.351,0,0,1,.86-2.073l-.5-.5a3.044,3.044,0,0,1,0-4.3L5.576,4.109a3.043,3.043,0,0,1,4.3,0l.5.5a13.36,13.36,0,0,1,2.073-.86v-.7A3.047,3.047,0,0,1,15.494,0h2.075a3.047,3.047,0,0,1,3.044,3.044v.7a13.348,13.348,0,0,1,2.073.86l.5-.5a3.044,3.044,0,0,1,4.3,0l1.467,1.467a3.044,3.044,0,0,1,0,4.3l-.5.5a13.349,13.349,0,0,1,.86,2.073h.7a3.047,3.047,0,0,1,3.044,3.044v2.075a3.047,3.047,0,0,1-3.044,3.044h-.7a13.352,13.352,0,0,1-.86,2.073l.5.5a3.044,3.044,0,0,1,0,4.3l-1.467,1.467a3.043,3.043,0,0,1-4.3,0l-.5-.5a13.36,13.36,0,0,1-2.073.86v.7A3.047,3.047,0,0,1,17.569,33.063ZM10.7,26.423a11.418,11.418,0,0,0,2.96,1.229.969.969,0,0,1,.727.938v1.43a1.108,1.108,0,0,0,1.106,1.106h2.075a1.108,1.108,0,0,0,1.106-1.106v-1.43a.969.969,0,0,1,.727-.938,11.418,11.418,0,0,0,2.96-1.229.969.969,0,0,1,1.178.149l1.013,1.013a1.106,1.106,0,0,0,1.564,0l1.468-1.468a1.106,1.106,0,0,0,0-1.564L26.572,23.54a.969.969,0,0,1-.149-1.178,11.416,11.416,0,0,0,1.228-2.96.969.969,0,0,1,.938-.727h1.43a1.108,1.108,0,0,0,1.106-1.106V15.494a1.108,1.108,0,0,0-1.106-1.106h-1.43a.969.969,0,0,1-.938-.727,11.418,11.418,0,0,0-1.228-2.96.969.969,0,0,1,.149-1.178L27.585,8.51a1.106,1.106,0,0,0,0-1.564L26.118,5.479a1.106,1.106,0,0,0-1.564,0L23.54,6.492a.969.969,0,0,1-1.178.149A11.418,11.418,0,0,0,19.4,5.412a.969.969,0,0,1-.727-.938V3.044a1.108,1.108,0,0,0-1.106-1.106H15.494a1.108,1.108,0,0,0-1.106,1.106v1.43a.969.969,0,0,1-.727.938A11.418,11.418,0,0,0,10.7,6.64a.969.969,0,0,1-1.178-.149L8.51,5.478a1.106,1.106,0,0,0-1.564,0L5.478,6.945a1.106,1.106,0,0,0,0,1.564L6.492,9.523A.969.969,0,0,1,6.64,10.7a11.416,11.416,0,0,0-1.228,2.96.969.969,0,0,1-.938.727H3.044a1.108,1.108,0,0,0-1.106,1.106v2.075a1.108,1.108,0,0,0,1.106,1.106h1.43a.969.969,0,0,1,.938.727,11.418,11.418,0,0,0,1.228,2.96.969.969,0,0,1-.149,1.178L5.478,24.553a1.106,1.106,0,0,0,0,1.564l1.467,1.467a1.106,1.106,0,0,0,1.564,0l1.013-1.014a.973.973,0,0,1,1.178-.149Z" transform="translate(0 0)" fill="#f9f7f6"/>
    <path id="Path_560" data-name="Path 560" d="M151.794,158.988a7.194,7.194,0,1,1,7.194-7.194A7.2,7.2,0,0,1,151.794,158.988Zm0-12.45a5.256,5.256,0,1,0,5.256,5.256A5.262,5.262,0,0,0,151.794,146.537Z" transform="translate(-135.262 -135.262)" fill="#f9f7f6"/>
  </g>
</svg>
