<svg xmlns="http://www.w3.org/2000/svg" width="234.89" height="162.052" viewBox="0 0 234.89 162.052">
  <g id="Group_203" data-name="Group 203" transform="translate(-515.11)" opacity="0.5">
    <path id="Path_300" data-name="Path 300" d="M527.859,58.066c12,6.572,28,1.325,39.814,8.228C578.186,72.437,581.647,86.172,581,98.332s-4.368,24.092-4.01,36.264c.2,6.651,1.777,13.571,6.191,18.551,5.338,6.021,13.825,8.156,21.853,8.714,21.56,1.5,42.664-6.054,62.549-14.52s39.692-18.074,61.1-21.057a84.292,84.292,0,0,1,21.321-.27V0H533.34c-7.291,6.473-13.52,14.069-16.564,23.228C512.6,35.784,516.254,51.71,527.859,58.066Z" fill="#c69963"/>
  </g>
</svg>
