<svg xmlns="http://www.w3.org/2000/svg" width="31.063" height="33.134" viewBox="0 0 31.063 33.134">
  <g id="upload" transform="translate(-16)">
    <g id="Group_267" data-name="Group 267" transform="translate(23.248)">
      <g id="Group_266" data-name="Group 266">
        <path id="Path_564" data-name="Path 564" d="M144.308,8.638,137.06.354a1.033,1.033,0,0,0-1.557,0l-7.248,8.283a1.035,1.035,0,0,0,.779,1.717h4.142V23.815a1.036,1.036,0,0,0,1.035,1.035h4.142a1.036,1.036,0,0,0,1.035-1.035V10.354h4.142a1.035,1.035,0,0,0,.779-1.717Z" transform="translate(-127.998)" fill="#f9f7f6"/>
      </g>
    </g>
    <g id="Group_269" data-name="Group 269" transform="translate(16 22.78)">
      <g id="Group_268" data-name="Group 268">
        <path id="Path_565" data-name="Path 565" d="M42.921,352v6.213H20.142V352H16v8.283a2.07,2.07,0,0,0,2.071,2.071H44.992a2.069,2.069,0,0,0,2.071-2.071V352Z" transform="translate(-16 -352)" fill="#f9f7f6"/>
      </g>
    </g>
  </g>
</svg>
