<svg xmlns="http://www.w3.org/2000/svg" width="33.063" height="39.63" viewBox="0 0 33.063 39.63"><g id="user" transform="translate(0 0)"><path id="Path_394" data-name="Path 394" d="M96.577,19.09a9.236,9.236,0,0,0,6.749-2.8,9.235,9.235,0,0,0,2.8-6.749,9.237,9.237,0,0,0-2.8-6.749,9.543,9.543,0,0,0-13.5,0,9.236,9.236,0,0,0-2.8,6.748,9.235,9.235,0,0,0,2.8,6.749A9.238,9.238,0,0,0,96.577,19.09Zm0,0" transform="translate(-80.295 0)" fill="#b28451"/><path id="Path_395" data-name="Path 395" d="M32.983,258.647a23.571,23.571,0,0,0-.321-2.5,19.73,19.73,0,0,0-.616-2.518,12.433,12.433,0,0,0-1.035-2.348,8.861,8.861,0,0,0-1.561-2.034,6.881,6.881,0,0,0-2.242-1.409,7.749,7.749,0,0,0-2.862-.518,2.905,2.905,0,0,0-1.551.658c-.465.3-1.009.654-1.616,1.042a9.26,9.26,0,0,1-2.091.921,8.121,8.121,0,0,1-5.115,0,9.241,9.241,0,0,1-2.09-.921c-.6-.384-1.146-.735-1.618-1.043a2.9,2.9,0,0,0-1.551-.658,7.736,7.736,0,0,0-2.862.519,6.875,6.875,0,0,0-2.242,1.409,8.859,8.859,0,0,0-1.56,2.034,12.459,12.459,0,0,0-1.035,2.348A19.777,19.777,0,0,0,.4,256.143a23.493,23.493,0,0,0-.321,2.5c-.053.758-.079,1.545-.079,2.34a6.581,6.581,0,0,0,1.954,4.979A7.036,7.036,0,0,0,6.99,267.8H26.072a7.034,7.034,0,0,0,5.036-1.837,6.578,6.578,0,0,0,1.955-4.979c0-.8-.027-1.586-.08-2.341Zm0,0" transform="translate(0 -228.173)" fill="#b28451"/></g></svg>
